<?xml version="1.0" encoding="utf-8"?>
<!-- Generator: Adobe Illustrator 24.2.0, SVG Export Plug-In . SVG Version: 6.00 Build 0)  -->
<svg version="1.1" id="Layer_1" xmlns="http://www.w3.org/2000/svg" xmlns:xlink="http://www.w3.org/1999/xlink" x="0px" y="0px"
	 viewBox="0 0 601 89" enable-background="new 0 0 601 89" xml:space="preserve">
<path fill="#FFFFFF" d="M103.8,57.1c0,14.2,8.7,23.8,25,23.8c15.5,0,25.1-9.3,25.1-23.8V18.6h-9.1v37.8c0,10.4-6.3,16.1-16,16.1
	c-9.8,0-16-5.9-16-16.1V18.6h-9.1V57.1z"/>
<path fill="#FFFFFF" d="M160.1,80.1h8.7V56.8c0-8.5,4.8-14.3,12.2-14.3c6.3,0,9.8,3.6,9.8,11.4v26.2h8.7V53c0-11-5.5-18.1-15.3-18.1
	c-6.6,0-12.1,3.4-14.8,9.1h-0.6l-1.2-8.3h-7.6V80.1z"/>
<path fill="#FFFFFF" d="M206.6,28.5h8.6V18h-8.6V28.5z M206.6,80.1h8.6V35.7h-8.6V80.1z"/>
<path fill="#FFFFFF" d="M220.1,35.7l15.8,44.4h10.5l15.6-44.4h-9.5l-7.1,22.3l-4,13.6h-0.5L236.7,58l-7.1-22.3H220.1z"/>
<path fill="#FFFFFF" d="M262.1,57.8c0,14.1,7.8,23.1,21,23.1c10.4,0,18.3-5.7,20.1-14.3h-8.6c-1.3,4.4-5.5,7.4-11.4,7.4
	c-7.3,0-12.2-4.7-12.2-11.7v-2.4h31.7c0.2-1.4,0.3-3.4,0.3-4.8c0-12.6-8-20.2-20-20.2C270.3,34.9,262.1,43.3,262.1,57.8z M271,53.6
	v-1c0-6.4,4.9-10.8,11.9-10.8c6.8,0,11.3,4.2,11.3,10.4v1.4H271z"/>
<path fill="#FFFFFF" d="M317.3,35.7c-6.7,0-7.6,4.1-7.6,7.6v36.8h8.7V43h14.3v-7.3H317.3z"/>
<path fill="#FFFFFF" d="M343.5,66.5h-8.7c0,8.5,6.9,14.4,18.5,14.4c10.8,0,18.1-5.1,18.1-13.8c0-6-3.3-10.7-11.9-12.2l-8.4-1.5
	c-2.3-0.3-6.7-1.1-6.7-5.7c0-3.8,2.9-6.2,8.4-6.2c5.1,0,8.6,2.2,8.7,7.1h8.6c-0.1-8.1-6.5-13.7-17.3-13.7c-10.3,0-17.1,5-17.1,13.6
	c0,5.8,3.4,10.4,12.1,12l9,1.7c1.8,0.3,5.6,1.2,5.6,5.6c0,4.1-3.4,6.7-9.1,6.7C347.4,74.3,343.5,71.4,343.5,66.5z"/>
<path fill="#FFFFFF" d="M375.7,57.8c0,14.1,7.8,23.1,21,23.1c10.4,0,18.3-5.7,20.1-14.3h-8.6c-1.3,4.4-5.5,7.4-11.4,7.4
	c-7.3,0-12.2-4.7-12.2-11.7v-2.4h31.7c0.2-1.4,0.3-3.4,0.3-4.8c0-12.6-8-20.2-20-20.2C383.8,34.9,375.7,43.3,375.7,57.8z
	 M384.6,53.6v-1c0-6.4,4.9-10.8,11.9-10.8c6.8,0,11.3,4.2,11.3,10.4v1.4H384.6z"/>
<path fill="#FFFFFF" d="M375.7,57.8c0,14.1,7.8,23.1,21,23.1c10.4,0,18.3-5.7,20.1-14.3h-8.6c-1.3,4.4-5.5,7.4-11.4,7.4
	c-7.3,0-12.2-4.7-12.2-11.7v-2.4h31.7c0.2-1.4,0.3-3.4,0.3-4.8c0-12.6-8-20.2-20-20.2C383.8,34.9,375.7,43.3,375.7,57.8z
	 M384.6,53.6v-1c0-6.4,4.9-10.8,11.9-10.8c6.8,0,11.3,4.2,11.3,10.4v1.4H384.6z"/>
<path fill-rule="evenodd" clip-rule="evenodd" fill="#FFFFFF" d="M46.5,0C20.8,0,0,20.4,0,45.6c0,20.2,13.3,37.2,31.8,43.3
	c2.3,0.4,3.2-1,3.2-2.2c0-1.1-0.1-4.7-0.1-8.5c-11.7,2.1-14.7-2.8-15.6-5.4c-0.5-1.3-2.8-5.4-4.8-6.4c-1.6-0.9-4-3-0.1-3
	c3.7-0.1,6.3,3.3,7.1,4.7c4.2,6.9,10.9,5,13.5,3.8c0.4-3,1.6-5,3-6.1C27.8,64.6,17,60.7,17,43.2c0-5,1.8-9.1,4.8-12.3
	c-0.5-1.1-2.1-5.8,0.5-12.1c0,0,3.9-1.2,12.8,4.7c3.7-1,7.7-1.5,11.6-1.5s7.9,0.5,11.6,1.5c8.9-5.9,12.8-4.7,12.8-4.7
	c2.6,6.3,0.9,11,0.5,12.1c3,3.2,4.8,7.2,4.8,12.3c0,17.5-10.9,21.4-21.2,22.5c1.7,1.4,3.1,4.2,3.1,8.4c0,6.1-0.1,11-0.1,12.5
	c0,1.2,0.9,2.6,3.2,2.2C79.7,82.9,93,65.8,93,45.6C93,20.4,72.2,0,46.5,0z"/>
<path fill-rule="evenodd" clip-rule="evenodd" fill="#FFFFFF" d="M446.7,49.5l-24.6,26V80h39v-5.3h-21.8c-2.8,0-6,0.1-8.8,0.2
	l20.2-21.5l0,0c0.2-0.3,0.5-0.5,0.7-0.8c3.4-3.6,8.2-8.7,8.2-17.1c0-5.3-2-9.7-5.4-12.8c-3.4-3.1-8.2-4.8-13.9-4.8
	c-5.9,0-10.8,1.9-14.2,5.3c-3.4,3.4-5.3,8.4-5.3,14.4l0,0.2h5.7v-1.6c0-3.9,1.3-7.1,3.7-9.4c2.3-2.3,5.7-3.6,9.8-3.6
	c3.4,0,6.7,1,9.2,2.8c2.4,1.8,4,4.4,4,7.7v3.8C453.5,40.8,451.8,44,446.7,49.5z M472.1,73.1c-3.4-5.2-5-13.1-5-23.8
	c0-10.7,1.6-18.6,5-23.8c3.4-5.2,8.5-7.7,15.5-7.7s12.1,2.5,15.4,7.7c3.4,5.2,5,13.1,5,23.8c0,10.7-1.6,18.6-5,23.8
	c-3.4,5.2-8.5,7.7-15.4,7.7S475.5,78.3,472.1,73.1z M473.6,40.2v18.1c0,5.8,1.5,10.1,4,12.9c2.5,2.8,5.9,4.2,10,4.2
	c4,0,7.5-1.4,10-4.2c2.5-2.8,4-7.1,4-12.9V40.2c0-5.8-1.5-10.1-4-12.9c-2.5-2.8-6-4.2-10-4.2c-4,0-7.5,1.4-10,4.2
	C475.1,30.1,473.6,34.4,473.6,40.2z"/>
<path fill-rule="evenodd" clip-rule="evenodd" fill="#FFFFFF" d="M539.2,49.5l-24.6,26V80h39v-5.3h-21.8c-2.8,0-6,0.1-8.8,0.2
	l20.2-21.5v0c0.2-0.3,0.5-0.5,0.7-0.8c3.4-3.6,8.2-8.7,8.2-17.1c0-5.3-2-9.7-5.4-12.8c-3.4-3.1-8.2-4.8-13.9-4.8
	c-5.9,0-10.8,1.9-14.2,5.3c-3.4,3.4-5.3,8.4-5.3,14.4l0,0.2h5.7v-1.6c0-3.9,1.3-7.1,3.7-9.4c2.3-2.3,5.7-3.6,9.8-3.6
	c3.4,0,6.7,1,9.2,2.8c2.5,1.8,4,4.4,4,7.7v3.8C546,40.8,544.3,44,539.2,49.5z M564.6,73.1c-3.4-5.2-5-13.1-5-23.8
	c0-10.7,1.6-18.6,5-23.8c3.4-5.2,8.5-7.7,15.5-7.7c6.9,0,12.1,2.5,15.4,7.7c3.4,5.2,5,13.1,5,23.8c0,10.7-1.6,18.6-5,23.8
	c-3.4,5.2-8.5,7.7-15.4,7.7C573.1,80.8,568,78.3,564.6,73.1z M566.1,40.2v18.1c0,5.8,1.5,10.1,4,12.9c2.5,2.8,5.9,4.2,10,4.2
	c4,0,7.5-1.4,10-4.2c2.5-2.8,4-7.1,4-12.9V40.2c0-5.8-1.5-10.1-4-12.9c-2.5-2.8-6-4.2-10-4.2c-4,0-7.5,1.4-10,4.2
	C567.6,30.1,566.1,34.4,566.1,40.2z"/>
</svg>
