<?xml version="1.0" encoding="utf-8"?>
<!-- Generator: Adobe Illustrator 23.0.6, SVG Export Plug-In . SVG Version: 6.00 Build 0)  -->
<svg version="1.1" id="katman_1" xmlns="http://www.w3.org/2000/svg" xmlns:xlink="http://www.w3.org/1999/xlink" x="0px" y="0px"
	 viewBox="0 0 650 200" style="enable-background:new 0 0 650 200;" xml:space="preserve">
<style type="text/css">
	.st0{fill-rule:evenodd;clip-rule:evenodd;fill:#F5FBFD;}
	.st1{fill:#F5FBFD;}
</style>
<path class="st0" d="M85.1,22.5c-43.6,0-78.8,34.6-78.8,77.3c0,34.2,22.5,63,53.9,73.4c3.9,0.7,5.4-1.7,5.4-3.7
	c0-1.9-0.2-8-0.2-14.4c-19.8,3.6-24.9-4.7-26.4-9.2c-0.8-2.2-4.7-9.2-8.1-10.8c-2.7-1.5-6.8-5.1-0.2-5.1c6.3-0.2,10.7,5.6,12,8
	c7.1,11.7,18.5,8.5,22.9,6.4c0.7-5.1,2.7-8.5,5.1-10.3c-17.3-2-35.6-8.6-35.6-38.3c0-8.5,3.1-15.4,8.1-20.8
	c-0.8-1.9-3.6-9.8,0.8-20.5c0,0,6.6-2,21.7,8c6.3-1.7,13-2.5,19.7-2.5c6.6,0,13.4,0.8,19.7,2.5c15.1-10,21.7-8,21.7-8
	c4.4,10.7,1.5,18.6,0.8,20.5c5.1,5.4,8.1,12.2,8.1,20.8c0,29.7-18.5,36.3-35.9,38.1c2.9,2.4,5.3,7.1,5.3,14.2
	c0,10.3-0.2,18.6-0.2,21.2c0,2,1.5,4.4,5.4,3.7c31-10,53.6-39,53.6-73.2C163.9,57.1,128.7,22.5,85.1,22.5z"/>
<path class="st1" d="M212.2,153.6V42.1h36.1c11,0,18.9,2.5,23.8,7.4c4.8,4.9,7.2,13,7.2,24.2c0,11-2.6,19.2-7.7,24.6
	c-5.1,5.4-13,8.1-23.6,8.1h-15.1v47.3H212.2z M232.3,90.9h8.7c6.5,0,11-1.3,13.6-3.8c2.6-2.5,3.9-6.9,3.9-13
	c0-6.2-1.2-10.5-3.6-12.9c-2.4-2.4-6.9-3.6-13.7-3.6h-9V90.9z"/>
<path class="st1" d="M299.4,97.9c0-11.8,0.6-21.3,1.7-28.4c1.1-7.1,2.8-12.4,5.2-16c3.2-5.1,7.1-8.7,11.6-10.9
	c4.5-2.2,10.4-3.3,17.7-3.3c7.3,0,13.2,1.1,17.7,3.3c4.5,2.2,8.4,5.8,11.6,10.9c2.4,3.7,4.1,9,5.2,16.1c1.1,7.1,1.6,16.5,1.6,28.2
	c0,11.7-0.6,21.1-1.7,28.2c-1.1,7.1-2.8,12.4-5.1,16.1c-3.3,5.1-7.2,8.7-11.6,10.9c-4.5,2.2-10.4,3.3-17.7,3.3
	c-7.3,0-13.2-1.1-17.7-3.3c-4.5-2.2-8.3-5.8-11.6-10.9c-2.4-3.6-4.1-8.9-5.2-16C300,119.2,299.4,109.7,299.4,97.9z M320.6,97.9
	c0,18.3,1.1,29.9,3.2,34.7c2.1,4.8,6.1,7.1,11.9,7.1c5.7,0,9.6-2.3,11.7-7c2.1-4.7,3.1-16.3,3.1-34.8s-1.1-30.2-3.2-34.9
	c-2.1-4.7-6-7.1-11.8-7.1c-5.7,0-9.7,2.4-11.8,7.1C321.7,67.7,320.6,79.3,320.6,97.9z"/>
<path class="st1" d="M395.2,114.5H416v7.2c0,6.9,0.9,11.5,2.6,14c1.7,2.5,4.7,3.7,8.9,3.7c4.4,0,7.7-1.1,10-3.3
	c2.3-2.2,3.4-5.5,3.4-9.8c0-3.3-0.8-6.2-2.4-8.6c-1.6-2.4-5-5.5-10.4-9.2l-10.6-7.5c-9.2-6.4-15-11.6-17.5-15.8
	c-2.5-4.2-3.7-9.4-3.7-15.6c0-9.4,2.8-16.7,8.3-22c5.6-5.3,13.2-8,23-8c10.3,0,18.3,2.8,23.8,8.5s8.3,13.8,8.3,24.3
	c0,1.1,0,1.9,0,2.5c0,0.6-0.1,1.1-0.1,1.5h-19.7v-3c0-6-1-10.4-3-13c-2-2.6-5.2-3.9-9.8-3.9c-3.3,0-6,1-7.9,2.9
	c-1.9,2-2.9,4.7-2.9,8.1c0,4.7,4.3,9.9,12.8,15.6c0.1,0,0.2,0.1,0.2,0.1l11.4,7.7c8.2,5.4,13.7,10.5,16.6,15.3
	c2.9,4.8,4.3,10.9,4.3,18.4c0,10.1-2.9,18-8.7,23.5c-5.8,5.5-14.1,8.3-24.8,8.3c-11.2,0-19.5-2.9-25-8.7c-5.5-5.8-8.2-14.6-8.2-26.5
	c0-1.3,0.1-3.3,0.3-6.2V114.5z"/>
<path class="st1" d="M485.1,114.5h20.8v7.2c0,6.9,0.9,11.5,2.6,14c1.7,2.5,4.7,3.7,8.9,3.7c4.4,0,7.7-1.1,10-3.3
	c2.3-2.2,3.4-5.5,3.4-9.8c0-3.3-0.8-6.2-2.4-8.6c-1.6-2.4-5-5.5-10.4-9.2l-10.6-7.5c-9.2-6.4-15-11.6-17.5-15.8
	c-2.5-4.2-3.7-9.4-3.7-15.6c0-9.4,2.8-16.7,8.3-22c5.6-5.3,13.2-8,23-8c10.3,0,18.3,2.8,23.8,8.5c5.5,5.6,8.3,13.8,8.3,24.3
	c0,1.1,0,1.9,0,2.5c0,0.6-0.1,1.1-0.1,1.5h-19.7v-3c0-6-1-10.4-3-13c-2-2.6-5.2-3.9-9.8-3.9c-3.3,0-6,1-7.9,2.9
	c-1.9,2-2.9,4.7-2.9,8.1c0,4.7,4.3,9.9,12.8,15.6c0.1,0,0.2,0.1,0.2,0.1l11.4,7.7c8.2,5.4,13.7,10.5,16.6,15.3
	c2.9,4.8,4.3,10.9,4.3,18.4c0,10.1-2.9,18-8.7,23.5c-5.8,5.5-14.1,8.3-24.8,8.3c-11.2,0-19.5-2.9-25-8.7c-5.5-5.8-8.2-14.6-8.2-26.5
	c0-1.3,0.1-3.3,0.3-6.2V114.5z"/>
<path class="st1" d="M613.7,46.9c-0.2-0.3-0.5-0.4-0.9-0.4c-0.4,0-0.7,0.2-0.9,0.5c-0.2,0.3-0.2,1-0.2,2v4.7c0,1,0.1,1.7,0.2,1.9
	c0.2,0.3,0.5,0.4,0.9,0.4c0.4,0,0.7-0.1,0.9-0.4c0.2-0.3,0.2-1,0.2-2.1v-4.7C614,47.8,613.9,47.2,613.7,46.9z M613.7,46.9
	c-0.2-0.3-0.5-0.4-0.9-0.4c-0.4,0-0.7,0.2-0.9,0.5c-0.2,0.3-0.2,1-0.2,2v4.7c0,1,0.1,1.7,0.2,1.9c0.2,0.3,0.5,0.4,0.9,0.4
	c0.4,0,0.7-0.1,0.9-0.4c0.2-0.3,0.2-1,0.2-2.1v-4.7C614,47.8,613.9,47.2,613.7,46.9z M613.7,46.9c-0.2-0.3-0.5-0.4-0.9-0.4
	c-0.4,0-0.7,0.2-0.9,0.5c-0.2,0.3-0.2,1-0.2,2v4.7c0,1,0.1,1.7,0.2,1.9c0.2,0.3,0.5,0.4,0.9,0.4c0.4,0,0.7-0.1,0.9-0.4
	c0.2-0.3,0.2-1,0.2-2.1v-4.7C614,47.8,613.9,47.2,613.7,46.9z M613.7,46.9c-0.2-0.3-0.5-0.4-0.9-0.4c-0.4,0-0.7,0.2-0.9,0.5
	c-0.2,0.3-0.2,1-0.2,2v4.7c0,1,0.1,1.7,0.2,1.9c0.2,0.3,0.5,0.4,0.9,0.4c0.4,0,0.7-0.1,0.9-0.4c0.2-0.3,0.2-1,0.2-2.1v-4.7
	C614,47.8,613.9,47.2,613.7,46.9z M613.7,46.9c-0.2-0.3-0.5-0.4-0.9-0.4c-0.4,0-0.7,0.2-0.9,0.5c-0.2,0.3-0.2,1-0.2,2v4.7
	c0,1,0.1,1.7,0.2,1.9c0.2,0.3,0.5,0.4,0.9,0.4c0.4,0,0.7-0.1,0.9-0.4c0.2-0.3,0.2-1,0.2-2.1v-4.7C614,47.8,613.9,47.2,613.7,46.9z
	 M613.7,46.9c-0.2-0.3-0.5-0.4-0.9-0.4c-0.4,0-0.7,0.2-0.9,0.5c-0.2,0.3-0.2,1-0.2,2v4.7c0,1,0.1,1.7,0.2,1.9
	c0.2,0.3,0.5,0.4,0.9,0.4c0.4,0,0.7-0.1,0.9-0.4c0.2-0.3,0.2-1,0.2-2.1v-4.7C614,47.8,613.9,47.2,613.7,46.9z M613.7,46.9
	c-0.2-0.3-0.5-0.4-0.9-0.4c-0.4,0-0.7,0.2-0.9,0.5c-0.2,0.3-0.2,1-0.2,2v4.7c0,1,0.1,1.7,0.2,1.9c0.2,0.3,0.5,0.4,0.9,0.4
	c0.4,0,0.7-0.1,0.9-0.4c0.2-0.3,0.2-1,0.2-2.1v-4.7C614,47.8,613.9,47.2,613.7,46.9z M613.7,46.9c-0.2-0.3-0.5-0.4-0.9-0.4
	c-0.4,0-0.7,0.2-0.9,0.5c-0.2,0.3-0.2,1-0.2,2v4.7c0,1,0.1,1.7,0.2,1.9c0.2,0.3,0.5,0.4,0.9,0.4c0.4,0,0.7-0.1,0.9-0.4
	c0.2-0.3,0.2-1,0.2-2.1v-4.7C614,47.8,613.9,47.2,613.7,46.9z M635.3,60.4V42.1H577v111.5h20.8v-49.1h35.4V86.7h-35.4V60.4H635.3z
	 M628.3,47c1,0,1.9-0.3,2.5-0.6c0.6-0.4,0.9-1,1-1.7h1.6v12.8h-2.2v-9h-2.8V47z M623.2,46.9c-0.2-0.3-0.5-0.4-0.9-0.4
	c-0.4,0-0.7,0.2-0.9,0.5c-0.2,0.3-0.3,0.8-0.3,1.5c0,0.1,0,0.2,0,0.3c0,0.1,0,0.1,0,0.2h-2.2c0,0,0-0.1,0-0.2c0-0.1,0-0.2,0-0.2
	c0-1.3,0.3-2.3,0.9-2.9c0.6-0.6,1.4-0.9,2.7-0.9c1.1,0,2,0.3,2.6,0.8c0.6,0.6,0.9,1.4,0.9,2.4c0,0.5-0.1,0.9-0.2,1.4
	c-0.1,0.4-0.3,0.8-0.5,1.2c-0.2,0.3-0.6,0.8-1.2,1.4c-0.3,0.3-0.6,0.6-0.7,0.8l0,0c-1.2,1.4-1.9,2.3-2.1,2.9h4.5v2h-6.9
	c0,0,0-0.1,0-0.2c0-0.1,0-0.2,0-0.2c0-1,0.2-1.9,0.6-2.8c0.4-0.9,1-1.8,1.8-2.6c0.2-0.2,0.4-0.4,0.7-0.6c0.5-0.5,0.9-0.9,1.1-1.2
	c0.2-0.3,0.3-0.5,0.4-0.8c0.1-0.3,0.1-0.6,0.1-1C623.5,47.5,623.4,47.1,623.2,46.9z M609.5,47.8c0.1-0.7,0.3-1.3,0.5-1.7
	c0.3-0.5,0.7-0.9,1.1-1.1c0.5-0.2,1-0.3,1.7-0.3c0.7,0,1.3,0.1,1.8,0.3c0.5,0.2,0.8,0.6,1.1,1.1c0.2,0.4,0.4,0.9,0.5,1.7
	c0.1,0.7,0.2,1.9,0.2,3.4c0,1.6,0,2.7-0.1,3.4c-0.1,0.7-0.2,1.3-0.5,1.7c-0.3,0.5-0.7,0.9-1.2,1.2c-0.5,0.2-1,0.4-1.8,0.4
	c-0.7,0-1.3-0.1-1.8-0.4c-0.5-0.3-0.8-0.6-1.1-1.2c-0.2-0.4-0.4-0.9-0.5-1.6c-0.1-0.7-0.1-1.9-0.1-3.5
	C609.3,49.6,609.4,48.5,609.5,47.8z M599.8,57.1c0-1,0.2-1.9,0.6-2.8c0.4-0.9,1-1.8,1.8-2.6c0.2-0.2,0.4-0.4,0.7-0.6
	c0.5-0.5,0.9-0.9,1.1-1.2c0.2-0.3,0.3-0.5,0.4-0.8c0.1-0.3,0.1-0.6,0.1-1c0-0.5-0.1-0.9-0.3-1.2c-0.2-0.3-0.5-0.4-0.9-0.4
	c-0.4,0-0.7,0.2-0.9,0.5c-0.2,0.3-0.3,0.8-0.3,1.5c0,0.1,0,0.2,0,0.3c0,0.1,0,0.1,0,0.2h-2.2c0,0,0-0.1,0-0.2c0-0.1,0-0.2,0-0.2
	c0-1.3,0.3-2.3,0.9-2.9c0.6-0.6,1.4-0.9,2.7-0.9c1.1,0,2,0.3,2.6,0.8c0.6,0.6,0.9,1.4,0.9,2.4c0,0.5-0.1,0.9-0.2,1.4
	c-0.1,0.4-0.3,0.8-0.5,1.2c-0.2,0.3-0.6,0.8-1.2,1.4c-0.3,0.3-0.6,0.6-0.7,0.8l0,0c-1.2,1.4-1.9,2.3-2.1,2.9h4.5v2h-6.9
	c0,0,0-0.1,0-0.2V57.1z M612.8,56c0.4,0,0.7-0.1,0.9-0.4c0.2-0.3,0.2-1,0.2-2.1v-4.7c0-1-0.1-1.7-0.2-2c-0.2-0.3-0.5-0.4-0.9-0.4
	c-0.4,0-0.7,0.2-0.9,0.5c-0.2,0.3-0.2,1-0.2,2v4.7c0,1,0.1,1.7,0.2,1.9C612.1,55.9,612.4,56,612.8,56z M613.7,46.9
	c-0.2-0.3-0.5-0.4-0.9-0.4c-0.4,0-0.7,0.2-0.9,0.5c-0.2,0.3-0.2,1-0.2,2v4.7c0,1,0.1,1.7,0.2,1.9c0.2,0.3,0.5,0.4,0.9,0.4
	c0.4,0,0.7-0.1,0.9-0.4c0.2-0.3,0.2-1,0.2-2.1v-4.7C614,47.8,613.9,47.2,613.7,46.9z M613.7,46.9c-0.2-0.3-0.5-0.4-0.9-0.4
	c-0.4,0-0.7,0.2-0.9,0.5c-0.2,0.3-0.2,1-0.2,2v4.7c0,1,0.1,1.7,0.2,1.9c0.2,0.3,0.5,0.4,0.9,0.4c0.4,0,0.7-0.1,0.9-0.4
	c0.2-0.3,0.2-1,0.2-2.1v-4.7C614,47.8,613.9,47.2,613.7,46.9z M613.7,46.9c-0.2-0.3-0.5-0.4-0.9-0.4c-0.4,0-0.7,0.2-0.9,0.5
	c-0.2,0.3-0.2,1-0.2,2v4.7c0,1,0.1,1.7,0.2,1.9c0.2,0.3,0.5,0.4,0.9,0.4c0.4,0,0.7-0.1,0.9-0.4c0.2-0.3,0.2-1,0.2-2.1v-4.7
	C614,47.8,613.9,47.2,613.7,46.9z M613.7,46.9c-0.2-0.3-0.5-0.4-0.9-0.4c-0.4,0-0.7,0.2-0.9,0.5c-0.2,0.3-0.2,1-0.2,2v4.7
	c0,1,0.1,1.7,0.2,1.9c0.2,0.3,0.5,0.4,0.9,0.4c0.4,0,0.7-0.1,0.9-0.4c0.2-0.3,0.2-1,0.2-2.1v-4.7C614,47.8,613.9,47.2,613.7,46.9z
	 M613.7,46.9c-0.2-0.3-0.5-0.4-0.9-0.4c-0.4,0-0.7,0.2-0.9,0.5c-0.2,0.3-0.2,1-0.2,2v4.7c0,1,0.1,1.7,0.2,1.9
	c0.2,0.3,0.5,0.4,0.9,0.4c0.4,0,0.7-0.1,0.9-0.4c0.2-0.3,0.2-1,0.2-2.1v-4.7C614,47.8,613.9,47.2,613.7,46.9z M613.7,46.9
	c-0.2-0.3-0.5-0.4-0.9-0.4c-0.4,0-0.7,0.2-0.9,0.5c-0.2,0.3-0.2,1-0.2,2v4.7c0,1,0.1,1.7,0.2,1.9c0.2,0.3,0.5,0.4,0.9,0.4
	c0.4,0,0.7-0.1,0.9-0.4c0.2-0.3,0.2-1,0.2-2.1v-4.7C614,47.8,613.9,47.2,613.7,46.9z"/>
</svg>
