<?xml version="1.0" encoding="utf-8"?>
<!-- Generator: Adobe Illustrator 23.0.6, SVG Export Plug-In . SVG Version: 6.00 Build 0)  -->
<svg version="1.1" id="katman_1" xmlns="http://www.w3.org/2000/svg" xmlns:xlink="http://www.w3.org/1999/xlink" x="0px" y="0px"
	 viewBox="0 0 1000 208" style="enable-background:new 0 0 1000 208;" xml:space="preserve">
<style type="text/css">
	.st0{fill-rule:evenodd;clip-rule:evenodd;fill:#F5FBFD;}
	.st1{fill:#FFFFFF;}
</style>
<rect y="263.5" width="1000" height="208"/>
<g>
	<path class="st0" d="M93.7,20.6c-48.2,0-87.2,38.2-87.2,85.5c0,37.9,24.9,69.7,59.6,81.2c4.3,0.7,6-1.9,6-4.1
		c0-2.1-0.2-8.8-0.2-15.9c-21.9,3.9-27.6-5.2-29.2-10.1c-0.9-2.4-5.2-10.1-9-12c-3-1.7-7.5-5.6-0.2-5.6c6.9-0.2,11.8,6.2,13.3,8.8
		c7.9,12.9,20.4,9.4,25.3,7.1c0.7-5.6,3-9.4,5.6-11.4c-19.1-2.2-39.4-9.6-39.4-42.4c0-9.4,3.4-17.1,9-23.1
		c-0.9-2.1-3.9-10.9,0.9-22.7c0,0,7.3-2.2,24,8.8c6.9-1.9,14.4-2.8,21.7-2.8s14.8,0.9,21.7,2.8c16.7-11.1,24-8.8,24-8.8
		c4.9,11.8,1.7,20.6,0.9,22.7c5.6,6,9,13.5,9,23.1c0,32.8-20.4,40.1-39.7,42.2c3.2,2.6,5.8,7.9,5.8,15.7c0,11.4-0.2,20.6-0.2,23.4
		c0,2.2,1.7,4.9,6,4.1c34.3-11.1,59.2-43.1,59.2-81C180.9,58.8,141.9,20.6,93.7,20.6z"/>
	<g>
		<path class="st1" d="M786.4,154h-77.7v-40l19.9-19.9h38.2l18.3-18.4V57.5l-18.4-18.4h-37.4l-18.7,19l-1.9-1.9l19.7-19.6h39.3
			l20,20v20.1l-19.9,20h-38.2L711.2,115v36.5h75.2V154z"/>
		<path class="st1" d="M836.7,154h-20.1l-19.9-19.9V56.6l19.9-19.9h20.1l19.9,19.9v77.5L836.7,154z M835.8,151.5l18.3-18.3V57.5
			l-18.3-18.3h-18.2l-18.3,18.3v75.6l18.3,18.3H835.8z"/>
		<path class="st1" d="M943.5,154h-77.7v-40l19.9-19.9h38.2l18.3-18.4V57.5l-18.4-18.4h-37.4l-18.7,19l-1.9-1.9l19.7-19.6h39.3
			l20,20v20.1l-19.9,20h-38.2L868.3,115v36.5h75.2V154z"/>
		<path class="st1" d="M955.3,151.5h17.8V41.1l-16.9,17l-1.9-1.9L975.6,35v116.5h17.8v2.5h-38.2V151.5z"/>
	</g>
	<g>
		<path class="st1" d="M244.9,154.9V35.1h38.7c11.8,0,20.3,2.6,25.5,7.9c5.2,5.3,7.8,14,7.8,26c0,11.8-2.8,20.6-8.3,26.4
			c-5.5,5.8-14,8.7-25.3,8.7h-16.3v50.8H244.9z M266.4,87.5h9.3c6.9,0,11.8-1.4,14.6-4.1c2.8-2.7,4.2-7.4,4.2-14
			c0-6.6-1.3-11.2-3.9-13.8c-2.6-2.6-7.5-3.9-14.7-3.9h-9.6V87.5z"/>
		<path class="st1" d="M329.3,95c0-12.7,0.6-22.9,1.8-30.5c1.2-7.6,3.1-13.3,5.6-17.2c3.5-5.4,7.6-9.3,12.4-11.7
			c4.8-2.3,11.2-3.5,19-3.5c7.9,0,14.2,1.2,19,3.5c4.8,2.3,9,6.2,12.5,11.7c2.5,3.9,4.4,9.7,5.6,17.3c1.2,7.6,1.7,17.7,1.7,30.3
			c0,12.6-0.6,22.7-1.8,30.3c-1.2,7.6-3,13.4-5.5,17.3c-3.5,5.4-7.7,9.3-12.5,11.7c-4.8,2.3-11.2,3.5-19,3.5c-7.9,0-14.2-1.2-19-3.5
			c-4.8-2.3-9-6.2-12.4-11.7c-2.5-3.8-4.4-9.6-5.6-17.2C329.9,117.9,329.3,107.7,329.3,95z M352.1,95c0,19.7,1.2,32.1,3.5,37.2
			c2.3,5.1,6.6,7.7,12.8,7.7c6.1,0,10.3-2.5,12.5-7.5c2.3-5,3.4-17.5,3.4-37.4c0-19.9-1.1-32.4-3.4-37.5c-2.3-5.1-6.5-7.6-12.6-7.6
			c-6.2,0-10.4,2.5-12.6,7.6C353.2,62.6,352.1,75.1,352.1,95z"/>
		<path class="st1" d="M422.9,112.8h22.3v7.7c0,7.4,0.9,12.4,2.8,15.1c1.8,2.7,5,4,9.5,4c4.7,0,8.3-1.2,10.8-3.6
			c2.5-2.4,3.7-5.9,3.7-10.6c0-3.6-0.9-6.7-2.6-9.2c-1.7-2.6-5.4-5.9-11.1-9.9l-11.4-8.1c-9.9-6.8-16.1-12.5-18.8-17
			c-2.7-4.5-4-10.1-4-16.8c0-10.1,3-17.9,8.9-23.6c6-5.7,14.2-8.6,24.7-8.6c11.1,0,19.6,3,25.5,9.1c5.9,6.1,8.9,14.8,8.9,26.1
			c0,1.1,0,2,0,2.6c0,0.6-0.1,1.2-0.1,1.6h-21.2v-3.2c0-6.5-1.1-11.1-3.2-13.9c-2.1-2.8-5.6-4.2-10.5-4.2c-3.6,0-6.4,1-8.4,3.2
			c-2,2.1-3.1,5-3.1,8.8c0,5,4.6,10.6,13.8,16.7c0.1,0.1,0.2,0.1,0.2,0.2l12.3,8.3c8.8,5.8,14.7,11.3,17.8,16.5
			c3.1,5.2,4.7,11.7,4.7,19.7c0,10.9-3.1,19.3-9.3,25.2c-6.2,5.9-15.1,8.9-26.7,8.9c-12,0-21-3.1-26.9-9.3
			c-5.9-6.2-8.8-15.7-8.8-28.5c0-1.3,0.1-3.6,0.3-6.7V112.8z"/>
		<path class="st1" d="M510.2,112.8h22.3v7.7c0,7.4,0.9,12.4,2.8,15.1s5,4,9.5,4c4.7,0,8.3-1.2,10.8-3.6c2.5-2.4,3.7-5.9,3.7-10.6
			c0-3.6-0.9-6.7-2.6-9.2c-1.7-2.6-5.4-5.9-11.1-9.9l-11.4-8.1c-9.9-6.8-16.1-12.5-18.8-17c-2.7-4.5-4-10.1-4-16.8
			c0-10.1,3-17.9,8.9-23.6c6-5.7,14.2-8.6,24.7-8.6c11.1,0,19.6,3,25.5,9.1s8.9,14.8,8.9,26.1c0,1.1,0,2,0,2.6
			c0,0.6-0.1,1.2-0.1,1.6h-21.2v-3.2c0-6.5-1.1-11.1-3.2-13.9c-2.1-2.8-5.6-4.2-10.5-4.2c-3.6,0-6.4,1-8.4,3.2c-2,2.1-3.1,5-3.1,8.8
			c0,5,4.6,10.6,13.8,16.7c0.1,0.1,0.2,0.1,0.2,0.2l12.3,8.3c8.8,5.8,14.7,11.3,17.8,16.5c3.1,5.2,4.7,11.7,4.7,19.7
			c0,10.9-3.1,19.3-9.3,25.2c-6.2,5.9-15.1,8.9-26.7,8.9c-12,0-21-3.1-26.9-9.3c-5.9-6.2-8.8-15.7-8.8-28.5c0-1.3,0.1-3.6,0.3-6.7
			V112.8z"/>
		<path class="st1" d="M599.8,154.9V35.1h62.6v19.6h-40.3V83h38v19.1h-38v52.7H599.8z"/>
	</g>
</g>
<g>
</g>
<g>
</g>
<g>
</g>
<g>
</g>
<g>
</g>
<g>
</g>
<g>
</g>
<g>
</g>
<g>
</g>
<g>
</g>
<g>
</g>
<g>
</g>
<g>
</g>
<g>
</g>
<g>
</g>
</svg>
