<?xml version="1.0" encoding="utf-8"?>
<!-- Generator: Adobe Illustrator 24.2.0, SVG Export Plug-In . SVG Version: 6.00 Build 0)  -->
<svg version="1.1" id="Layer_1" xmlns="http://www.w3.org/2000/svg" xmlns:xlink="http://www.w3.org/1999/xlink" x="0px" y="0px"
	 viewBox="0 0 1680 880" enable-background="new 0 0 1680 880" xml:space="preserve">
<defs>
	<filter id="Adobe_OpacityMaskFilter" filterUnits="userSpaceOnUse" x="-120" y="-193" width="1921" height="1406">
		<feColorMatrix  type="matrix" values="1 0 0 0 0  0 1 0 0 0  0 0 1 0 0  0 0 0 1 0"/>
	</filter>
</defs>
<mask maskUnits="userSpaceOnUse" x="-120" y="-193" width="1921" height="1406" id="mask0_1_">
	<rect fill="#C4C4C4" filter="url(#Adobe_OpacityMaskFilter)" width="1680" height="880"/>
</mask>
<g mask="url(#mask0_1_)">
	
		<radialGradient id="SVGID_1_" cx="589.6282" cy="689.2282" r="1" gradientTransform="matrix(10.9997 542.9996 759.1492 -15.3783 -528931.8125 -309176.75)" gradientUnits="userSpaceOnUse">
		<stop  offset="0" style="stop-color:#232337"/>
		<stop  offset="0.6642" style="stop-color:#232337;stop-opacity:0.5"/>
		<stop  offset="1" style="stop-color:#232337;stop-opacity:0"/>
	</radialGradient>
	<path fill="none" stroke="url(#SVGID_1_)" stroke-width="2" stroke-dasharray="2,5" d="M120.9-192H-119v87.8 M120.9-192v87.8
		 M120.9-192h159.9 M120.9-192v175.5 M120.9-104.2H-119 M120.9-104.2h-80 M120.9-104.2v43.9 M-119-104.2H40.9 M-119-104.2v43.9
		 M40.9-104.2v43.9 M40.9-60.4H-119 M40.9-60.4h80 M-119-60.4h239.9 M-119-60.4v43.9 M120.9-60.4v43.9 M120.9-16.5H-119 M120.9-16.5
		h159.9 M120.9-16.5h-80 M120.9-16.5v87.8 M120.9-16.5v43.9 M-119-16.5H40.9 M-119-16.5v87.8 M1560.1,1212H1800v-87.8 M1560.1,1212
		v-87.8 M1560.1,1212h-159.9 M1560.1,1212v-175.5 M1560.1,1124.2H1800 M1560.1,1124.2h80 M1560.1,1124.2v-43.9 M1800,1124.2h-159.9
		 M1800,1124.2v-43.9 M1640.1,1124.2v-43.9 M1640.1,1080.4H1800 M1640.1,1080.4h-80 M1800,1080.4h-239.9 M1800,1080.4v-43.9
		 M1560.1,1080.4v-43.9 M1560.1,1036.5H1800 M1560.1,1036.5h-159.9 M1560.1,1036.5h80 M1560.1,1036.5v-87.8 M1560.1,1036.5v-43.9
		 M1800,1036.5h-159.9 M1800,1036.5v-87.8 M840.5,1212H600.6 M840.5,1212v-87.8 M840.5,1212h80 M840.5,1212v-43.9 M600.6,1212v-87.8
		 M600.6,1212H440.7 M600.6,1212v-175.5 M600.6,1124.2h239.9 M600.6,1124.2h80 M600.6,1124.2v-43.9 M840.5,1124.2H680.6
		 M840.5,1124.2v-43.9 M680.6,1124.2v-43.9 M680.6,1080.4h159.9 M680.6,1080.4h-80 M840.5,1080.4H600.6 M840.5,1080.4v-43.9
		 M600.6,1080.4v-43.9 M600.6,1036.5h239.9 M600.6,1036.5H440.7 M600.6,1036.5h80 M600.6,1036.5v-87.8 M600.6,1036.5v-43.9
		 M840.5,1036.5v131.6 M840.5,1036.5h80 M840.5,1036.5H680.6 M840.5,1036.5v-87.8 M840.5,1036.5h159.9 M840.5,1036.5v-43.9
		 M840.5-192h239.9 M840.5-192v87.8 M840.5-192h-80 M840.5-192v43.9 M1080.4-192v87.8 M1080.4-192h159.9 M1080.4-192v175.5
		 M1080.4-104.2H840.5 M1080.4-104.2h-80 M1080.4-104.2v43.9 M840.5-104.2h159.9 M840.5-104.2v43.9 M1000.4-104.2v43.9 M1000.4-60.4
		H840.5 M1000.4-60.4h80 M840.5-60.4h239.9 M840.5-60.4v43.9 M1080.4-60.4v43.9 M1080.4-16.5H840.5 M1080.4-16.5h159.9 M1080.4-16.5
		h-80 M1080.4-16.5v87.8 M1080.4-16.5v43.9 M840.5-16.5v-131.6 M840.5-16.5h-80 M840.5-16.5h159.9 M840.5-16.5v87.8 M840.5-16.5
		H680.6 M840.5-16.5v43.9 M280.8-192v175.5 M280.8-192h80 M280.8-192v43.9 M280.8-16.5h80 M280.8-16.5v-87.8 M280.8-16.5v43.9
		 M280.8-16.5V159 M360.8-192v43.9 M360.8-192h80 M360.8-148.1h-80 M360.8-148.1v43.9 M360.8-148.1h80 M360.8-148.1h159.9
		 M280.8-148.1v43.9 M360.8-104.2h-80 M360.8-104.2v87.8 M360.8-104.2h159.9 M360.8-104.2h80 M360.8-16.5h80 M360.8-16.5V159
		 M360.8-16.5h239.9 M360.8-16.5v131.6 M1400.2,1212v-175.5 M1400.2,1212h-80 M1400.2,1212v-43.9 M1400.2,1036.5h-80 M1400.2,1036.5
		v87.8 M1400.2,1036.5v-43.9 M1400.2,1036.5V861 M1320.2,1212v-43.9 M1320.2,1212h-80 M1320.2,1168.1h80 M1320.2,1168.1v-43.9
		 M1320.2,1168.1h-80 M1320.2,1168.1h-159.9 M1400.2,1168.1v-43.9 M1320.2,1124.2h80 M1320.2,1124.2v-87.8 M1320.2,1124.2h-159.9
		 M1320.2,1124.2h-80 M1320.2,1036.5h-80 M1320.2,1036.5V861 M1320.2,1036.5h-239.9 M1320.2,1036.5V904.9 M440.7,1212v-175.5
		 M440.7,1212h-80 M440.7,1212v-43.9 M440.7,1036.5h-80 M440.7,1036.5v87.8 M440.7,1036.5v-43.9 M440.7,1036.5V861 M360.8,1212
		v-43.9 M360.8,1212h-80 M360.8,1168.1h80 M360.8,1168.1v-43.9 M360.8,1168.1h-80 M360.8,1168.1H200.8 M440.7,1168.1v-43.9
		 M360.8,1124.2h80 M360.8,1124.2v-87.8 M360.8,1124.2H200.8 M360.8,1124.2h-80 M360.8,1036.5h-80 M360.8,1036.5V861 M360.8,1036.5
		H120.9 M360.8,1036.5V904.9 M1240.3-192v175.5 M1240.3-192h80 M1240.3-192v43.9 M1240.3-16.5h80 M1240.3-16.5v-87.8 M1240.3-16.5
		v43.9 M1240.3-16.5V159 M1320.2-192v43.9 M1320.2-192h80 M1320.2-148.1h-80 M1320.2-148.1v43.9 M1320.2-148.1h80 M1320.2-148.1
		h159.9 M1240.3-148.1v43.9 M1320.2-104.2h-80 M1320.2-104.2v87.8 M1320.2-104.2h159.9 M1320.2-104.2h80 M1320.2-16.5h80
		 M1320.2-16.5V159 M1320.2-16.5h239.9 M1320.2-16.5v131.6 M440.7-192v43.9 M440.7-192h80 M440.7-148.1h80 M520.7-192v43.9
		 M520.7-192h80 M520.7-192v131.6 M520.7-148.1v43.9 M600.6-192v131.6 M600.6-192h159.9 M600.6-60.4h-80 M600.6-60.4v43.9
		 M600.6-60.4h159.9 M520.7-60.4v-43.9 M520.7-60.4h-80 M520.7-60.4v43.9 M520.7-104.2h-80 M440.7-104.2v87.8 M440.7-104.2v43.9
		 M440.7-16.5h80 M440.7-16.5v-43.9 M520.7-16.5h80 M600.6-16.5h159.9 M600.6-16.5v131.6 M600.6-16.5h80 M600.6-16.5v43.9
		 M1240.3,1212v-43.9 M1240.3,1212h-80 M1240.3,1168.1h-80 M1160.3,1212v-43.9 M1160.3,1212h-80 M1160.3,1212v-131.6 M1160.3,1168.1
		v-43.9 M1080.4,1212v-131.6 M1080.4,1212H920.5 M1080.4,1080.4h80 M1080.4,1080.4v-43.9 M1080.4,1080.4H920.5 M1160.3,1080.4v43.9
		 M1160.3,1080.4h80 M1160.3,1080.4v-43.9 M1160.3,1124.2h80 M1240.3,1124.2v-87.8 M1240.3,1124.2v-43.9 M1240.3,1036.5h-80
		 M1240.3,1036.5v43.9 M1160.3,1036.5h-80 M1080.4,1036.5H920.5 M1080.4,1036.5V904.9 M1080.4,1036.5h-80 M1080.4,1036.5v-43.9
		 M280.8,1212v-43.9 M280.8,1212h-80 M280.8,1168.1h-80 M200.8,1212v-43.9 M200.8,1212h-80 M200.8,1212v-131.6 M200.8,1168.1v-43.9
		 M120.9,1212v-131.6 M120.9,1212H-39 M120.9,1080.4h80 M120.9,1080.4v-43.9 M120.9,1080.4H-39 M200.8,1080.4v43.9 M200.8,1080.4h80
		 M200.8,1080.4v-43.9 M200.8,1124.2h80 M280.8,1124.2v-87.8 M280.8,1124.2v-43.9 M280.8,1036.5h-80 M280.8,1036.5v43.9
		 M200.8,1036.5h-80 M120.9,1036.5H-39 M120.9,1036.5V904.9 M120.9,1036.5h-80 M120.9,1036.5v-43.9 M1400.2-192v43.9 M1400.2-192h80
		 M1400.2-148.1h80 M1480.2-192v43.9 M1480.2-192h79.9 M1480.2-192v131.6 M1480.2-148.1v43.9 M1560.1-192v131.6 M1560.1-192H1720
		 M1560.1-60.4h-79.9 M1560.1-60.4v43.9 M1560.1-60.4H1720 M1480.2-60.4v-43.9 M1480.2-60.4h-80 M1480.2-60.4v43.9 M1480.2-104.2
		h-80 M1400.2-104.2v87.8 M1400.2-104.2v43.9 M1400.2-16.5h80 M1400.2-16.5v-43.9 M1480.2-16.5h79.9 M1560.1-16.5H1720 M1560.1-16.5
		v131.6 M1560.1-16.5h80 M1560.1-16.5v43.9 M760.5-192v131.6 M760.5-192v43.9 M760.5-60.4v43.9 M840.5-148.1h-80 M760.5-148.1v131.6
		 M920.5,1212v-131.6 M920.5,1212v-43.9 M920.5,1080.4v-43.9 M840.5,1168.1h80 M920.5,1168.1v-131.6 M-39,1212v-131.6 M-39,1212h-80
		v-43.9 M-39,1212v-43.9 M-39,1080.4v-43.9 M-119,1168.1h80 M-119,1168.1v-131.6 M-39,1168.1v-131.6 M-119,1036.5h80 M-119,1036.5
		H40.9 M-119,1036.5v-43.9 M1720-192v131.6 M1720-192h80v43.9 M1720-192v43.9 M1720-60.4v43.9 M1800-148.1h-80 M1800-148.1v131.6
		 M1720-148.1v131.6 M1800-16.5h-80 M1800-16.5h-159.9 M1800-16.5v43.9 M40.9-16.5v87.8 M40.9,71.2H-119 M40.9,71.2h80 M40.9,71.2
		h-80 M40.9,71.2v43.9 M-119,71.2h80 M-119,71.2v43.9 M120.9,71.2v43.9 M-39,71.2v43.9 M-39,115.1h-80 M-39,115.1h80 M-39,115.1V159
		 M-39,115.1h159.9 M-119,115.1V159 M40.9,115.1h80 M120.9,115.1V159 M-39,159h-80 M-39,159h159.9 M-39,159v175.5 M-39,159h80
		 M-39,159v43.9 M-119,159v175.5 M120.9,159h159.9 M120.9,159V27.4 M120.9,159h-80 M120.9,159v43.9 M120.9,159h80 M120.9,159v175.5
		 M1640.1,1036.5v-87.8 M1640.1,948.8H1800 M1640.1,948.8h-80 M1640.1,948.8h80 M1640.1,948.8v-43.9 M1800,948.8h-80 M1800,948.8
		v-43.9 M1560.1,948.8v-43.9 M1720,948.8v-43.9 M1720,904.9h80 M1720,904.9h-80 M1720,904.9V861 M1720,904.9h-159.9 M1800,904.9V861
		 M1640.1,904.9h-80 M1560.1,904.9V861 M1720,861h80 M1720,861h-159.9 M1720,861V685.5 M1720,861h-80 M1720,861v-43.9 M1800,861
		V685.5 M1560.1,861h-159.9 M1560.1,861v131.6 M1560.1,861h80 M1560.1,861v-43.9 M1560.1,861h-79.9 M1560.1,861V685.5 M680.6,1036.5
		v-87.8 M680.6,948.8h159.9 M680.6,948.8h-80 M680.6,948.8h80 M680.6,948.8v-43.9 M840.5,948.8h-80 M840.5,948.8v-43.9 M600.6,948.8
		v-43.9 M760.5,948.8v-43.9 M760.5,904.9h80 M760.5,904.9h-80 M760.5,904.9V861 M760.5,904.9H600.6 M840.5,904.9V861 M840.5,904.9
		v87.8 M840.5,904.9h80 M680.6,904.9h-80 M600.6,904.9V861 M760.5,861h80 M760.5,861H600.6 M760.5,861V685.5 M760.5,861h-80
		 M760.5,861v-43.9 M840.5,861h80 M840.5,861V685.5 M600.6,861H440.7 M600.6,861v131.6 M600.6,861h80 M600.6,861v-43.9 M600.6,861
		h-80 M600.6,861V685.5 M1000.4-16.5v87.8 M1000.4,71.2H840.5 M1000.4,71.2h80 M1000.4,71.2h-80 M1000.4,71.2v43.9 M840.5,71.2h80
		 M840.5,71.2v43.9 M1080.4,71.2v43.9 M920.5,71.2v43.9 M920.5,115.1h-80 M920.5,115.1h80 M920.5,115.1V159 M920.5,115.1h159.9
		 M840.5,115.1V159 M840.5,115.1V27.4 M840.5,115.1h-80 M1000.4,115.1h80 M1080.4,115.1V159 M920.5,159h-80 M920.5,159h159.9
		 M920.5,159v175.5 M920.5,159h80 M920.5,159v43.9 M840.5,159h-80 M840.5,159v175.5 M1080.4,159h159.9 M1080.4,159V27.4 M1080.4,159
		h-80 M1080.4,159v43.9 M1080.4,159h80 M1080.4,159v175.5 M280.8,27.4H120.9 M280.8,27.4V159 M360.8,159h-80 M360.8,159h80
		 M360.8,159v-43.9 M360.8,159H200.8 M360.8,159v175.5 M360.8,159h239.9 M360.8,159v43.9 M1400.2,992.6h159.9 M1400.2,992.6V861
		 M1320.2,861h80 M1320.2,861h-80 M1320.2,861v43.9 M1320.2,861h159.9 M1320.2,861V685.5 M1320.2,861h-239.9 M1320.2,861v-43.9
		 M440.7,992.6h159.9 M440.7,992.6V861 M360.8,861h80 M360.8,861h-80 M360.8,861v43.9 M360.8,861h159.9 M360.8,861V685.5 M360.8,861
		H120.9 M360.8,861v-43.9 M1240.3,27.4h-159.9 M1240.3,27.4V159 M1320.2,159h-80 M1320.2,159h80 M1320.2,159v-43.9 M1320.2,159
		h-159.9 M1320.2,159v175.5 M1320.2,159h239.9 M1320.2,159v43.9 M600.6,115.1H360.8 M600.6,115.1h-80 M600.6,115.1V159 M360.8,115.1
		h80 M440.7,115.1V159 M440.7,115.1h80 M440.7,159h80 M520.7,115.1V159 M520.7,159h80 M600.6,159h159.9 M600.6,159V71.2 M600.6,159
		v43.9 M600.6,159v175.5 M1080.4,904.9h239.9 M1080.4,904.9h80 M1080.4,904.9V861 M1320.2,904.9h-80 M1240.3,904.9V861
		 M1240.3,904.9h-80 M1240.3,861h-80 M1160.3,904.9V861 M1160.3,861h-80 M1080.4,861H920.5 M1080.4,861v87.8 M1080.4,861v-43.9
		 M1080.4,861V685.5 M120.9,904.9h239.9 M120.9,904.9h80 M120.9,904.9V861 M360.8,904.9h-80 M280.8,904.9V861 M280.8,904.9h-80
		 M280.8,861h-80 M200.8,904.9V861 M200.8,861h-80 M120.9,861H-39 M120.9,861v87.8 M120.9,861v-43.9 M120.9,861V685.5 M1560.1,115.1
		h-239.9 M1560.1,115.1h-79.9 M1560.1,115.1V159 M1320.2,115.1h80 M1400.2,115.1V159 M1400.2,115.1h80 M1400.2,159h80 M1480.2,115.1
		V159 M1480.2,159h79.9 M1560.1,159H1720 M1560.1,159V71.2 M1560.1,159v43.9 M1560.1,159v175.5 M680.6-16.5v43.9 M680.6,27.4h-80
		 M680.6,27.4h159.9 M600.6,27.4h159.9 M600.6,27.4v43.9 M840.5,27.4h-80 M760.5,27.4v43.9 M760.5,27.4v87.8 M760.5,71.2H600.6
		 M760.5,71.2V159 M760.5,115.1V159 M1000.4,1036.5v-43.9 M1000.4,992.6h80 M1000.4,992.6H840.5 M1080.4,992.6H920.5 M1080.4,992.6
		v-43.9 M840.5,992.6h80 M920.5,992.6v-43.9 M920.5,992.6v-87.8 M920.5,948.8h159.9 M920.5,948.8V861 M920.5,904.9V861 M920.5,861
		V685.5 M40.9,1036.5v-43.9 M40.9,992.6h80 M40.9,992.6H-119 M120.9,992.6H-39 M120.9,992.6v-43.9 M-119,992.6h80 M-119,992.6v-87.8
		 M-39,992.6v-43.9 M-39,992.6v-87.8 M-39,948.8h159.9 M-39,948.8V861 M-119,904.9h80 M-119,904.9V861 M-39,904.9V861 M-39,861h-80
		 M-39,861V685.5 M-119,861V685.5 M1640.1-16.5v43.9 M1640.1,27.4h-80 M1640.1,27.4H1800 M1560.1,27.4H1720 M1560.1,27.4v43.9
		 M1800,27.4h-80 M1800,27.4v87.8 M1720,27.4v43.9 M1720,27.4v87.8 M1720,71.2h-159.9 M1720,71.2V159 M1800,115.1h-80 M1800,115.1
		V159 M1720,115.1V159 M1720,159h80 M1720,159v175.5 M1800,159v175.5 M-39,334.5h-80 M-39,334.5h159.9 M-39,334.5v-43.9 M-39,334.5
		v87.8 M-39,334.5V510 M-119,334.5v87.8 M40.9,159v43.9 M40.9,202.9h-80 M40.9,202.9h80 M40.9,202.9v43.9 M-39,202.9v43.9
		 M120.9,202.9v43.9 M40.9,246.8h-80 M40.9,246.8h80 M40.9,246.8v43.9 M-39,246.8v43.9 M120.9,246.8v43.9 M40.9,290.6h-80
		 M40.9,290.6h80 M-39,290.6h159.9 M120.9,290.6v43.9 M120.9,334.5h80 M120.9,334.5V510 M120.9,334.5h159.9 M120.9,334.5v87.8v43.9
		 M1720,685.5h80 M1720,685.5h-159.9 M1720,685.5v43.9 M1720,685.5v-87.8 M1720,685.5V510 M1800,685.5v-87.8 M1640.1,861v-43.9
		 M1640.1,817.1h80 M1640.1,817.1h-80 M1640.1,817.1v-43.9 M1720,817.1v-43.9 M1560.1,817.1v-43.9 M1640.1,773.2h80 M1640.1,773.2
		h-80 M1640.1,773.2v-43.9 M1720,773.2v-43.9 M1560.1,773.2v-43.9 M1640.1,729.4h80 M1640.1,729.4h-80 M1720,729.4h-159.9
		 M1560.1,729.4v-43.9 M1560.1,685.5h-79.9 M1560.1,685.5V510 M1560.1,685.5h-159.9 M1560.1,685.5v-87.8 M760.5,685.5h80
		 M760.5,685.5H600.6 M760.5,685.5v43.9v43.9 M760.5,685.5v-87.8 M760.5,685.5V510 M840.5,685.5h80 M840.5,685.5v-87.8 M840.5,685.5
		h239.9 M840.5,685.5v-43.9 M680.6,861v-43.9 M680.6,817.1h80 M680.6,817.1h-80 M680.6,817.1v-43.9 M760.5,817.1v-43.9 M600.6,817.1
		v-43.9 M680.6,773.2h80 M680.6,773.2h-80 M600.6,773.2v-43.9v-43.9 M600.6,685.5h-80 M600.6,685.5V510 M600.6,685.5H440.7
		 M600.6,685.5v-87.8 M920.5,334.5h-80 M920.5,334.5h159.9 M920.5,334.5v-43.9 M840.5,334.5H600.6 M1000.4,159v43.9 M1000.4,202.9
		h-80 M1000.4,202.9h80 M1000.4,202.9v43.9 M920.5,202.9v43.9 M1080.4,202.9v43.9 M1000.4,246.8h-80 M1000.4,246.8h80 M1000.4,246.8
		v43.9 M920.5,246.8v43.9 M1080.4,246.8v43.9 M1000.4,290.6h-80 M1000.4,290.6h80 M920.5,290.6h159.9 M1080.4,290.6v43.9
		 M1080.4,334.5h80 M1080.4,334.5h159.9h80 M200.8,159v175.5 M200.8,334.5h159.9 M360.8,334.5h80 M360.8,334.5v-87.8 M360.8,334.5
		h-80 M360.8,334.5V510 M360.8,334.5h239.9 M360.8,334.5v87.8V510 M1480.2,861V685.5 M1480.2,685.5h-159.9 M1320.2,685.5h-80
		 M1320.2,685.5v87.8 M1320.2,685.5h80 M1320.2,685.5V510 M1320.2,685.5h-239.9 M1320.2,685.5v-87.8 M520.7,861V685.5 M520.7,685.5
		H360.8 M360.8,685.5h-80 M360.8,685.5v87.8 M360.8,685.5h80 M360.8,685.5V510 M360.8,685.5H120.9 M360.8,685.5v-87.8 M1160.3,159
		v175.5 M1160.3,334.5h159.9 M1320.2,334.5h80v-87.8 M1320.2,334.5v-87.8 M1320.2,334.5V510 M1320.2,334.5v87.8 M600.6,202.9H360.8
		 M600.6,202.9v43.9 M360.8,202.9v43.9 M600.6,246.8H360.8 M600.6,246.8h-80 M600.6,246.8v43.9 M360.8,246.8h80 M440.7,246.8v87.8
		 M440.7,246.8h80 M440.7,334.5h80 M520.7,246.8v87.8 M520.7,246.8v43.9 M520.7,334.5h80 M520.7,334.5v-43.9 M600.6,290.6h-80
		 M600.6,290.6v43.9 M1080.4,817.1h239.9 M1080.4,817.1v-43.9 M1320.2,817.1v-43.9 M1080.4,773.2h239.9 M1080.4,773.2h80
		 M1080.4,773.2v-43.9 M1320.2,773.2h-80 M1240.3,773.2v-87.8 M1240.3,773.2h-80 M1240.3,685.5h-80 M1160.3,773.2v-87.8
		 M1160.3,773.2v-43.9 M1160.3,685.5h-80 M1160.3,685.5v43.9 M1080.4,729.4h80 M1080.4,729.4v-43.9 M1080.4,685.5H920.5
		 M1080.4,685.5v-87.8 M1080.4,685.5v-43.9 M120.9,817.1h239.9 M120.9,817.1v-43.9 M360.8,817.1v-43.9 M120.9,773.2h239.9
		 M120.9,773.2h80 M120.9,773.2v-43.9 M360.8,773.2h-80 M280.8,773.2v-87.8 M280.8,773.2h-80 M280.8,685.5h-80 M200.8,773.2v-87.8
		 M200.8,773.2v-43.9 M200.8,685.5h-80 M200.8,685.5v43.9 M120.9,729.4h80 M120.9,729.4v-43.9 M120.9,685.5H-39 M120.9,685.5v-87.8
		 M120.9,685.5H-119 M120.9,685.5v-43.9 M1560.1,202.9h-239.9 M1560.1,202.9v43.9 M1320.2,202.9v43.9 M1560.1,246.8h-239.9
		 M1560.1,246.8h-79.9 M1560.1,246.8v43.9 M1320.2,246.8h80 M1400.2,246.8h80 M1480.2,246.8v87.8 M1480.2,246.8v43.9 M1480.2,334.5
		h79.9 M1480.2,334.5v-43.9 M1560.1,290.6h-79.9 M1560.1,290.6v43.9 M1560.1,334.5H1720 M1560.1,334.5v87.8 M1560.1,334.5H1800
		 M1560.1,334.5v43.9 M-39,685.5h-80 M-119,685.5v-43.9 M1720,334.5h80 M1800,334.5v43.9 M-39,422.2h-80 M-39,422.2v43.9
		 M-119,422.2v43.9 M120.9,510H-39 M120.9,510h159.9 M120.9,510v-43.9 M120.9,510v87.8 M120.9,510h239.9 M120.9,510h-80 M120.9,510
		v131.6 M-39,510v-43.9 M-39,510h-80 M-39,510v131.6 M-39,510h80 M-39,510l0,43.9 M-39,466.1h-80 M-119,466.1V510 M-119,510v43.9
		 M1720,597.8h80 M1720,597.8v-43.9 M1800,597.8v-43.9 M1560.1,510H1720 M1560.1,510h-159.9 M1560.1,510v43.9 M1560.1,510v-87.8
		 M1560.1,510h-239.9 M1560.1,510h80 M1560.1,510V378.4 M1720,510v43.9 M1720,510h80 M1720,510V378.4 M1720,510h-80 M1720,510v-43.9
		 M1720,553.9h80 M1800,553.9V510 M1800,510v-43.9 M760.5,597.8h80 M760.5,597.8v-43.9 M840.5,597.8v-43.9 M840.5,597.8v43.9
		 M840.5,597.8h80 M600.6,510h159.9 M600.6,510H440.7 M600.6,510v43.9 M600.6,510H360.8 M600.6,510h80h80 M760.5,510v43.9
		 M760.5,510h80 M760.5,553.9h80 M840.5,553.9V510 M840.5,553.9h80 M840.5,510h80 M1080.4,510H920.5 M1080.4,510h159.9h80
		 M1080.4,510v87.8 M1080.4,510h239.9 M1080.4,510h-80 M1080.4,510v131.6 M920.5,510v131.6 M920.5,510h80 M920.5,510v43.9
		 M280.8,334.5v87.8v43.9 M280.8,334.5V510 M360.8,510h-80 M360.8,510h80 M360.8,510v87.8 M280.8,510v-43.9 M120.9,466.1h80h80
		 M120.9,466.1h159.9 M1400.2,685.5v-87.8 M1400.2,685.5V510 M1400.2,597.8h159.9 M1400.2,597.8h80 M1400.2,597.8v-43.9
		 M1560.1,597.8h-79.9 M1560.1,597.8v-43.9 M1320.2,510h80 M1320.2,510v87.8 M1320.2,510v-87.8 M1400.2,510v43.9 M1480.2,597.8
		v-43.9 M1480.2,553.9h79.9 M1480.2,553.9h-80 M1560.1,553.9h-159.9 M440.7,685.5v-87.8 M440.7,685.5V510 M440.7,597.8h159.9
		 M440.7,597.8h80 M440.7,597.8v-43.9 M600.6,597.8h-80 M600.6,597.8v-43.9 M440.7,510v43.9 M520.7,597.8v-43.9 M520.7,553.9h80
		 M520.7,553.9h-80 M600.6,553.9H440.7 M1080.4,597.8h239.9 M120.9,597.8h239.9 M1560.1,422.2h-239.9 M840.5,641.6h239.9
		 M840.5,641.6h80 M1080.4,641.6h-80 M1000.4,641.6V510 M1000.4,641.6h-80 M920.5,641.6v-43.9 M920.5,597.8v-43.9 M-119,641.6h239.9
		 M-119,641.6h80 M-119,641.6v-43.9 M120.9,641.6h-80 M40.9,641.6V510 M40.9,641.6h-80 M-39,641.6l0-43.9 M-119,597.8h80
		 M-119,597.8v-43.9 M-39,597.8v-43.9 M-119,553.9h80 M1800,378.4h-239.9 M1800,378.4h-80 M1800,378.4v43.9 M1560.1,378.4h80
		 M1640.1,378.4V510 M1640.1,378.4h80 M1720,378.4v43.9 M1800,422.2h-80 M1800,422.2v43.9 M1720,422.2v43.9 M1800,466.1h-80"/>
</g>
<defs>
	<filter id="Adobe_OpacityMaskFilter_1_" filterUnits="userSpaceOnUse" x="-120" y="-193" width="1921" height="1406">
		<feColorMatrix  type="matrix" values="1 0 0 0 0  0 1 0 0 0  0 0 1 0 0  0 0 0 1 0"/>
	</filter>
</defs>
<mask maskUnits="userSpaceOnUse" x="-120" y="-193" width="1921" height="1406" id="mask0_2_">
	<rect fill="#C4C4C4" filter="url(#Adobe_OpacityMaskFilter_1_)" width="1680" height="880"/>
</mask>
<g mask="url(#mask0_2_)">
	
		<radialGradient id="SVGID_2_" cx="589.6282" cy="689.2282" r="1" gradientTransform="matrix(10.9997 542.9996 759.1492 -15.3783 -528931.8125 -309176.75)" gradientUnits="userSpaceOnUse">
		<stop  offset="0" style="stop-color:#232337"/>
		<stop  offset="0.6642" style="stop-color:#232337;stop-opacity:0.5"/>
		<stop  offset="1" style="stop-color:#232337;stop-opacity:0"/>
	</radialGradient>
	<path fill="none" stroke="url(#SVGID_2_)" stroke-width="2" stroke-dasharray="2,5" d="M120.9-192H-119v87.8 M120.9-192v87.8
		 M120.9-192h159.9 M120.9-192v175.5 M120.9-104.2H-119 M120.9-104.2h-80 M120.9-104.2v43.9 M-119-104.2H40.9 M-119-104.2v43.9
		 M40.9-104.2v43.9 M40.9-60.4H-119 M40.9-60.4h80 M-119-60.4h239.9 M-119-60.4v43.9 M120.9-60.4v43.9 M120.9-16.5H-119 M120.9-16.5
		h159.9 M120.9-16.5h-80 M120.9-16.5v87.8 M120.9-16.5v43.9 M-119-16.5H40.9 M-119-16.5v87.8 M1560.1,1212H1800v-87.8 M1560.1,1212
		v-87.8 M1560.1,1212h-159.9 M1560.1,1212v-175.5 M1560.1,1124.2H1800 M1560.1,1124.2h80 M1560.1,1124.2v-43.9 M1800,1124.2h-159.9
		 M1800,1124.2v-43.9 M1640.1,1124.2v-43.9 M1640.1,1080.4H1800 M1640.1,1080.4h-80 M1800,1080.4h-239.9 M1800,1080.4v-43.9
		 M1560.1,1080.4v-43.9 M1560.1,1036.5H1800 M1560.1,1036.5h-159.9 M1560.1,1036.5h80 M1560.1,1036.5v-87.8 M1560.1,1036.5v-43.9
		 M1800,1036.5h-159.9 M1800,1036.5v-87.8 M840.5,1212H600.6 M840.5,1212v-87.8 M840.5,1212h80 M840.5,1212v-43.9 M600.6,1212v-87.8
		 M600.6,1212H440.7 M600.6,1212v-175.5 M600.6,1124.2h239.9 M600.6,1124.2h80 M600.6,1124.2v-43.9 M840.5,1124.2H680.6
		 M840.5,1124.2v-43.9 M680.6,1124.2v-43.9 M680.6,1080.4h159.9 M680.6,1080.4h-80 M840.5,1080.4H600.6 M840.5,1080.4v-43.9
		 M600.6,1080.4v-43.9 M600.6,1036.5h239.9 M600.6,1036.5H440.7 M600.6,1036.5h80 M600.6,1036.5v-87.8 M600.6,1036.5v-43.9
		 M840.5,1036.5v131.6 M840.5,1036.5h80 M840.5,1036.5H680.6 M840.5,1036.5v-87.8 M840.5,1036.5h159.9 M840.5,1036.5v-43.9
		 M840.5-192h239.9 M840.5-192v87.8 M840.5-192h-80 M840.5-192v43.9 M1080.4-192v87.8 M1080.4-192h159.9 M1080.4-192v175.5
		 M1080.4-104.2H840.5 M1080.4-104.2h-80 M1080.4-104.2v43.9 M840.5-104.2h159.9 M840.5-104.2v43.9 M1000.4-104.2v43.9 M1000.4-60.4
		H840.5 M1000.4-60.4h80 M840.5-60.4h239.9 M840.5-60.4v43.9 M1080.4-60.4v43.9 M1080.4-16.5H840.5 M1080.4-16.5h159.9 M1080.4-16.5
		h-80 M1080.4-16.5v87.8 M1080.4-16.5v43.9 M840.5-16.5v-131.6 M840.5-16.5h-80 M840.5-16.5h159.9 M840.5-16.5v87.8 M840.5-16.5
		H680.6 M840.5-16.5v43.9 M280.8-192v175.5 M280.8-192h80 M280.8-192v43.9 M280.8-16.5h80 M280.8-16.5v-87.8 M280.8-16.5v43.9
		 M280.8-16.5V159 M360.8-192v43.9 M360.8-192h80 M360.8-148.1h-80 M360.8-148.1v43.9 M360.8-148.1h80 M360.8-148.1h159.9
		 M280.8-148.1v43.9 M360.8-104.2h-80 M360.8-104.2v87.8 M360.8-104.2h159.9 M360.8-104.2h80 M360.8-16.5h80 M360.8-16.5V159
		 M360.8-16.5h239.9 M360.8-16.5v131.6 M1400.2,1212v-175.5 M1400.2,1212h-80 M1400.2,1212v-43.9 M1400.2,1036.5h-80 M1400.2,1036.5
		v87.8 M1400.2,1036.5v-43.9 M1400.2,1036.5V861 M1320.2,1212v-43.9 M1320.2,1212h-80 M1320.2,1168.1h80 M1320.2,1168.1v-43.9
		 M1320.2,1168.1h-80 M1320.2,1168.1h-159.9 M1400.2,1168.1v-43.9 M1320.2,1124.2h80 M1320.2,1124.2v-87.8 M1320.2,1124.2h-159.9
		 M1320.2,1124.2h-80 M1320.2,1036.5h-80 M1320.2,1036.5V861 M1320.2,1036.5h-239.9 M1320.2,1036.5V904.9 M440.7,1212v-175.5
		 M440.7,1212h-80 M440.7,1212v-43.9 M440.7,1036.5h-80 M440.7,1036.5v87.8 M440.7,1036.5v-43.9 M440.7,1036.5V861 M360.8,1212
		v-43.9 M360.8,1212h-80 M360.8,1168.1h80 M360.8,1168.1v-43.9 M360.8,1168.1h-80 M360.8,1168.1H200.8 M440.7,1168.1v-43.9
		 M360.8,1124.2h80 M360.8,1124.2v-87.8 M360.8,1124.2H200.8 M360.8,1124.2h-80 M360.8,1036.5h-80 M360.8,1036.5V861 M360.8,1036.5
		H120.9 M360.8,1036.5V904.9 M1240.3-192v175.5 M1240.3-192h80 M1240.3-192v43.9 M1240.3-16.5h80 M1240.3-16.5v-87.8 M1240.3-16.5
		v43.9 M1240.3-16.5V159 M1320.2-192v43.9 M1320.2-192h80 M1320.2-148.1h-80 M1320.2-148.1v43.9 M1320.2-148.1h80 M1320.2-148.1
		h159.9 M1240.3-148.1v43.9 M1320.2-104.2h-80 M1320.2-104.2v87.8 M1320.2-104.2h159.9 M1320.2-104.2h80 M1320.2-16.5h80
		 M1320.2-16.5V159 M1320.2-16.5h239.9 M1320.2-16.5v131.6 M440.7-192v43.9 M440.7-192h80 M440.7-148.1h80 M520.7-192v43.9
		 M520.7-192h80 M520.7-192v131.6 M520.7-148.1v43.9 M600.6-192v131.6 M600.6-192h159.9 M600.6-60.4h-80 M600.6-60.4v43.9
		 M600.6-60.4h159.9 M520.7-60.4v-43.9 M520.7-60.4h-80 M520.7-60.4v43.9 M520.7-104.2h-80 M440.7-104.2v87.8 M440.7-104.2v43.9
		 M440.7-16.5h80 M440.7-16.5v-43.9 M520.7-16.5h80 M600.6-16.5h159.9 M600.6-16.5v131.6 M600.6-16.5h80 M600.6-16.5v43.9
		 M1240.3,1212v-43.9 M1240.3,1212h-80 M1240.3,1168.1h-80 M1160.3,1212v-43.9 M1160.3,1212h-80 M1160.3,1212v-131.6 M1160.3,1168.1
		v-43.9 M1080.4,1212v-131.6 M1080.4,1212H920.5 M1080.4,1080.4h80 M1080.4,1080.4v-43.9 M1080.4,1080.4H920.5 M1160.3,1080.4v43.9
		 M1160.3,1080.4h80 M1160.3,1080.4v-43.9 M1160.3,1124.2h80 M1240.3,1124.2v-87.8 M1240.3,1124.2v-43.9 M1240.3,1036.5h-80
		 M1240.3,1036.5v43.9 M1160.3,1036.5h-80 M1080.4,1036.5H920.5 M1080.4,1036.5V904.9 M1080.4,1036.5h-80 M1080.4,1036.5v-43.9
		 M280.8,1212v-43.9 M280.8,1212h-80 M280.8,1168.1h-80 M200.8,1212v-43.9 M200.8,1212h-80 M200.8,1212v-131.6 M200.8,1168.1v-43.9
		 M120.9,1212v-131.6 M120.9,1212H-39 M120.9,1080.4h80 M120.9,1080.4v-43.9 M120.9,1080.4H-39 M200.8,1080.4v43.9 M200.8,1080.4h80
		 M200.8,1080.4v-43.9 M200.8,1124.2h80 M280.8,1124.2v-87.8 M280.8,1124.2v-43.9 M280.8,1036.5h-80 M280.8,1036.5v43.9
		 M200.8,1036.5h-80 M120.9,1036.5H-39 M120.9,1036.5V904.9 M120.9,1036.5h-80 M120.9,1036.5v-43.9 M1400.2-192v43.9 M1400.2-192h80
		 M1400.2-148.1h80 M1480.2-192v43.9 M1480.2-192h79.9 M1480.2-192v131.6 M1480.2-148.1v43.9 M1560.1-192v131.6 M1560.1-192H1720
		 M1560.1-60.4h-79.9 M1560.1-60.4v43.9 M1560.1-60.4H1720 M1480.2-60.4v-43.9 M1480.2-60.4h-80 M1480.2-60.4v43.9 M1480.2-104.2
		h-80 M1400.2-104.2v87.8 M1400.2-104.2v43.9 M1400.2-16.5h80 M1400.2-16.5v-43.9 M1480.2-16.5h79.9 M1560.1-16.5H1720 M1560.1-16.5
		v131.6 M1560.1-16.5h80 M1560.1-16.5v43.9 M760.5-192v131.6 M760.5-192v43.9 M760.5-60.4v43.9 M840.5-148.1h-80 M760.5-148.1v131.6
		 M920.5,1212v-131.6 M920.5,1212v-43.9 M920.5,1080.4v-43.9 M840.5,1168.1h80 M920.5,1168.1v-131.6 M-39,1212v-131.6 M-39,1212h-80
		v-43.9 M-39,1212v-43.9 M-39,1080.4v-43.9 M-119,1168.1h80 M-119,1168.1v-131.6 M-39,1168.1v-131.6 M-119,1036.5h80 M-119,1036.5
		H40.9 M-119,1036.5v-43.9 M1720-192v131.6 M1720-192h80v43.9 M1720-192v43.9 M1720-60.4v43.9 M1800-148.1h-80 M1800-148.1v131.6
		 M1720-148.1v131.6 M1800-16.5h-80 M1800-16.5h-159.9 M1800-16.5v43.9 M40.9-16.5v87.8 M40.9,71.2H-119 M40.9,71.2h80 M40.9,71.2
		h-80 M40.9,71.2v43.9 M-119,71.2h80 M-119,71.2v43.9 M120.9,71.2v43.9 M-39,71.2v43.9 M-39,115.1h-80 M-39,115.1h80 M-39,115.1V159
		 M-39,115.1h159.9 M-119,115.1V159 M40.9,115.1h80 M120.9,115.1V159 M-39,159h-80 M-39,159h159.9 M-39,159v175.5 M-39,159h80
		 M-39,159v43.9 M-119,159v175.5 M120.9,159h159.9 M120.9,159V27.4 M120.9,159h-80 M120.9,159v43.9 M120.9,159h80 M120.9,159v175.5
		 M1640.1,1036.5v-87.8 M1640.1,948.8H1800 M1640.1,948.8h-80 M1640.1,948.8h80 M1640.1,948.8v-43.9 M1800,948.8h-80 M1800,948.8
		v-43.9 M1560.1,948.8v-43.9 M1720,948.8v-43.9 M1720,904.9h80 M1720,904.9h-80 M1720,904.9V861 M1720,904.9h-159.9 M1800,904.9V861
		 M1640.1,904.9h-80 M1560.1,904.9V861 M1720,861h80 M1720,861h-159.9 M1720,861V685.5 M1720,861h-80 M1720,861v-43.9 M1800,861
		V685.5 M1560.1,861h-159.9 M1560.1,861v131.6 M1560.1,861h80 M1560.1,861v-43.9 M1560.1,861h-79.9 M1560.1,861V685.5 M680.6,1036.5
		v-87.8 M680.6,948.8h159.9 M680.6,948.8h-80 M680.6,948.8h80 M680.6,948.8v-43.9 M840.5,948.8h-80 M840.5,948.8v-43.9 M600.6,948.8
		v-43.9 M760.5,948.8v-43.9 M760.5,904.9h80 M760.5,904.9h-80 M760.5,904.9V861 M760.5,904.9H600.6 M840.5,904.9V861 M840.5,904.9
		v87.8 M840.5,904.9h80 M680.6,904.9h-80 M600.6,904.9V861 M760.5,861h80 M760.5,861H600.6 M760.5,861V685.5 M760.5,861h-80
		 M760.5,861v-43.9 M840.5,861h80 M840.5,861V685.5 M600.6,861H440.7 M600.6,861v131.6 M600.6,861h80 M600.6,861v-43.9 M600.6,861
		h-80 M600.6,861V685.5 M1000.4-16.5v87.8 M1000.4,71.2H840.5 M1000.4,71.2h80 M1000.4,71.2h-80 M1000.4,71.2v43.9 M840.5,71.2h80
		 M840.5,71.2v43.9 M1080.4,71.2v43.9 M920.5,71.2v43.9 M920.5,115.1h-80 M920.5,115.1h80 M920.5,115.1V159 M920.5,115.1h159.9
		 M840.5,115.1V159 M840.5,115.1V27.4 M840.5,115.1h-80 M1000.4,115.1h80 M1080.4,115.1V159 M920.5,159h-80 M920.5,159h159.9
		 M920.5,159v175.5 M920.5,159h80 M920.5,159v43.9 M840.5,159h-80 M840.5,159v175.5 M1080.4,159h159.9 M1080.4,159V27.4 M1080.4,159
		h-80 M1080.4,159v43.9 M1080.4,159h80 M1080.4,159v175.5 M280.8,27.4H120.9 M280.8,27.4V159 M360.8,159h-80 M360.8,159h80
		 M360.8,159v-43.9 M360.8,159H200.8 M360.8,159v175.5 M360.8,159h239.9 M360.8,159v43.9 M1400.2,992.6h159.9 M1400.2,992.6V861
		 M1320.2,861h80 M1320.2,861h-80 M1320.2,861v43.9 M1320.2,861h159.9 M1320.2,861V685.5 M1320.2,861h-239.9 M1320.2,861v-43.9
		 M440.7,992.6h159.9 M440.7,992.6V861 M360.8,861h80 M360.8,861h-80 M360.8,861v43.9 M360.8,861h159.9 M360.8,861V685.5 M360.8,861
		H120.9 M360.8,861v-43.9 M1240.3,27.4h-159.9 M1240.3,27.4V159 M1320.2,159h-80 M1320.2,159h80 M1320.2,159v-43.9 M1320.2,159
		h-159.9 M1320.2,159v175.5 M1320.2,159h239.9 M1320.2,159v43.9 M600.6,115.1H360.8 M600.6,115.1h-80 M600.6,115.1V159 M360.8,115.1
		h80 M440.7,115.1V159 M440.7,115.1h80 M440.7,159h80 M520.7,115.1V159 M520.7,159h80 M600.6,159h159.9 M600.6,159V71.2 M600.6,159
		v43.9 M600.6,159v175.5 M1080.4,904.9h239.9 M1080.4,904.9h80 M1080.4,904.9V861 M1320.2,904.9h-80 M1240.3,904.9V861
		 M1240.3,904.9h-80 M1240.3,861h-80 M1160.3,904.9V861 M1160.3,861h-80 M1080.4,861H920.5 M1080.4,861v87.8 M1080.4,861v-43.9
		 M1080.4,861V685.5 M120.9,904.9h239.9 M120.9,904.9h80 M120.9,904.9V861 M360.8,904.9h-80 M280.8,904.9V861 M280.8,904.9h-80
		 M280.8,861h-80 M200.8,904.9V861 M200.8,861h-80 M120.9,861H-39 M120.9,861v87.8 M120.9,861v-43.9 M120.9,861V685.5 M1560.1,115.1
		h-239.9 M1560.1,115.1h-79.9 M1560.1,115.1V159 M1320.2,115.1h80 M1400.2,115.1V159 M1400.2,115.1h80 M1400.2,159h80 M1480.2,115.1
		V159 M1480.2,159h79.9 M1560.1,159H1720 M1560.1,159V71.2 M1560.1,159v43.9 M1560.1,159v175.5 M680.6-16.5v43.9 M680.6,27.4h-80
		 M680.6,27.4h159.9 M600.6,27.4h159.9 M600.6,27.4v43.9 M840.5,27.4h-80 M760.5,27.4v43.9 M760.5,27.4v87.8 M760.5,71.2H600.6
		 M760.5,71.2V159 M760.5,115.1V159 M1000.4,1036.5v-43.9 M1000.4,992.6h80 M1000.4,992.6H840.5 M1080.4,992.6H920.5 M1080.4,992.6
		v-43.9 M840.5,992.6h80 M920.5,992.6v-43.9 M920.5,992.6v-87.8 M920.5,948.8h159.9 M920.5,948.8V861 M920.5,904.9V861 M920.5,861
		V685.5 M40.9,1036.5v-43.9 M40.9,992.6h80 M40.9,992.6H-119 M120.9,992.6H-39 M120.9,992.6v-43.9 M-119,992.6h80 M-119,992.6v-87.8
		 M-39,992.6v-43.9 M-39,992.6v-87.8 M-39,948.8h159.9 M-39,948.8V861 M-119,904.9h80 M-119,904.9V861 M-39,904.9V861 M-39,861h-80
		 M-39,861V685.5 M-119,861V685.5 M1640.1-16.5v43.9 M1640.1,27.4h-80 M1640.1,27.4H1800 M1560.1,27.4H1720 M1560.1,27.4v43.9
		 M1800,27.4h-80 M1800,27.4v87.8 M1720,27.4v43.9 M1720,27.4v87.8 M1720,71.2h-159.9 M1720,71.2V159 M1800,115.1h-80 M1800,115.1
		V159 M1720,115.1V159 M1720,159h80 M1720,159v175.5 M1800,159v175.5 M-39,334.5h-80 M-39,334.5h159.9 M-39,334.5v-43.9 M-39,334.5
		v87.8 M-39,334.5V510 M-119,334.5v87.8 M40.9,159v43.9 M40.9,202.9h-80 M40.9,202.9h80 M40.9,202.9v43.9 M-39,202.9v43.9
		 M120.9,202.9v43.9 M40.9,246.8h-80 M40.9,246.8h80 M40.9,246.8v43.9 M-39,246.8v43.9 M120.9,246.8v43.9 M40.9,290.6h-80
		 M40.9,290.6h80 M-39,290.6h159.9 M120.9,290.6v43.9 M120.9,334.5h80 M120.9,334.5V510 M120.9,334.5h159.9 M120.9,334.5v87.8v43.9
		 M1720,685.5h80 M1720,685.5h-159.9 M1720,685.5v43.9 M1720,685.5v-87.8 M1720,685.5V510 M1800,685.5v-87.8 M1640.1,861v-43.9
		 M1640.1,817.1h80 M1640.1,817.1h-80 M1640.1,817.1v-43.9 M1720,817.1v-43.9 M1560.1,817.1v-43.9 M1640.1,773.2h80 M1640.1,773.2
		h-80 M1640.1,773.2v-43.9 M1720,773.2v-43.9 M1560.1,773.2v-43.9 M1640.1,729.4h80 M1640.1,729.4h-80 M1720,729.4h-159.9
		 M1560.1,729.4v-43.9 M1560.1,685.5h-79.9 M1560.1,685.5V510 M1560.1,685.5h-159.9 M1560.1,685.5v-87.8 M760.5,685.5h80
		 M760.5,685.5H600.6 M760.5,685.5v43.9v43.9 M760.5,685.5v-87.8 M760.5,685.5V510 M840.5,685.5h80 M840.5,685.5v-87.8 M840.5,685.5
		h239.9 M840.5,685.5v-43.9 M680.6,861v-43.9 M680.6,817.1h80 M680.6,817.1h-80 M680.6,817.1v-43.9 M760.5,817.1v-43.9 M600.6,817.1
		v-43.9 M680.6,773.2h80 M680.6,773.2h-80 M600.6,773.2v-43.9v-43.9 M600.6,685.5h-80 M600.6,685.5V510 M600.6,685.5H440.7
		 M600.6,685.5v-87.8 M920.5,334.5h-80 M920.5,334.5h159.9 M920.5,334.5v-43.9 M840.5,334.5H600.6 M1000.4,159v43.9 M1000.4,202.9
		h-80 M1000.4,202.9h80 M1000.4,202.9v43.9 M920.5,202.9v43.9 M1080.4,202.9v43.9 M1000.4,246.8h-80 M1000.4,246.8h80 M1000.4,246.8
		v43.9 M920.5,246.8v43.9 M1080.4,246.8v43.9 M1000.4,290.6h-80 M1000.4,290.6h80 M920.5,290.6h159.9 M1080.4,290.6v43.9
		 M1080.4,334.5h80 M1080.4,334.5h159.9h80 M200.8,159v175.5 M200.8,334.5h159.9 M360.8,334.5h80 M360.8,334.5v-87.8 M360.8,334.5
		h-80 M360.8,334.5V510 M360.8,334.5h239.9 M360.8,334.5v87.8V510 M1480.2,861V685.5 M1480.2,685.5h-159.9 M1320.2,685.5h-80
		 M1320.2,685.5v87.8 M1320.2,685.5h80 M1320.2,685.5V510 M1320.2,685.5h-239.9 M1320.2,685.5v-87.8 M520.7,861V685.5 M520.7,685.5
		H360.8 M360.8,685.5h-80 M360.8,685.5v87.8 M360.8,685.5h80 M360.8,685.5V510 M360.8,685.5H120.9 M360.8,685.5v-87.8 M1160.3,159
		v175.5 M1160.3,334.5h159.9 M1320.2,334.5h80v-87.8 M1320.2,334.5v-87.8 M1320.2,334.5V510 M1320.2,334.5v87.8 M600.6,202.9H360.8
		 M600.6,202.9v43.9 M360.8,202.9v43.9 M600.6,246.8H360.8 M600.6,246.8h-80 M600.6,246.8v43.9 M360.8,246.8h80 M440.7,246.8v87.8
		 M440.7,246.8h80 M440.7,334.5h80 M520.7,246.8v87.8 M520.7,246.8v43.9 M520.7,334.5h80 M520.7,334.5v-43.9 M600.6,290.6h-80
		 M600.6,290.6v43.9 M1080.4,817.1h239.9 M1080.4,817.1v-43.9 M1320.2,817.1v-43.9 M1080.4,773.2h239.9 M1080.4,773.2h80
		 M1080.4,773.2v-43.9 M1320.2,773.2h-80 M1240.3,773.2v-87.8 M1240.3,773.2h-80 M1240.3,685.5h-80 M1160.3,773.2v-87.8
		 M1160.3,773.2v-43.9 M1160.3,685.5h-80 M1160.3,685.5v43.9 M1080.4,729.4h80 M1080.4,729.4v-43.9 M1080.4,685.5H920.5
		 M1080.4,685.5v-87.8 M1080.4,685.5v-43.9 M120.9,817.1h239.9 M120.9,817.1v-43.9 M360.8,817.1v-43.9 M120.9,773.2h239.9
		 M120.9,773.2h80 M120.9,773.2v-43.9 M360.8,773.2h-80 M280.8,773.2v-87.8 M280.8,773.2h-80 M280.8,685.5h-80 M200.8,773.2v-87.8
		 M200.8,773.2v-43.9 M200.8,685.5h-80 M200.8,685.5v43.9 M120.9,729.4h80 M120.9,729.4v-43.9 M120.9,685.5H-39 M120.9,685.5v-87.8
		 M120.9,685.5H-119 M120.9,685.5v-43.9 M1560.1,202.9h-239.9 M1560.1,202.9v43.9 M1320.2,202.9v43.9 M1560.1,246.8h-239.9
		 M1560.1,246.8h-79.9 M1560.1,246.8v43.9 M1320.2,246.8h80 M1400.2,246.8h80 M1480.2,246.8v87.8 M1480.2,246.8v43.9 M1480.2,334.5
		h79.9 M1480.2,334.5v-43.9 M1560.1,290.6h-79.9 M1560.1,290.6v43.9 M1560.1,334.5H1720 M1560.1,334.5v87.8 M1560.1,334.5H1800
		 M1560.1,334.5v43.9 M-39,685.5h-80 M-119,685.5v-43.9 M1720,334.5h80 M1800,334.5v43.9 M-39,422.2h-80 M-39,422.2v43.9
		 M-119,422.2v43.9 M120.9,510H-39 M120.9,510h159.9 M120.9,510v-43.9 M120.9,510v87.8 M120.9,510h239.9 M120.9,510h-80 M120.9,510
		v131.6 M-39,510v-43.9 M-39,510h-80 M-39,510v131.6 M-39,510h80 M-39,510l0,43.9 M-39,466.1h-80 M-119,466.1V510 M-119,510v43.9
		 M1720,597.8h80 M1720,597.8v-43.9 M1800,597.8v-43.9 M1560.1,510H1720 M1560.1,510h-159.9 M1560.1,510v43.9 M1560.1,510v-87.8
		 M1560.1,510h-239.9 M1560.1,510h80 M1560.1,510V378.4 M1720,510v43.9 M1720,510h80 M1720,510V378.4 M1720,510h-80 M1720,510v-43.9
		 M1720,553.9h80 M1800,553.9V510 M1800,510v-43.9 M760.5,597.8h80 M760.5,597.8v-43.9 M840.5,597.8v-43.9 M840.5,597.8v43.9
		 M840.5,597.8h80 M600.6,510h159.9 M600.6,510H440.7 M600.6,510v43.9 M600.6,510H360.8 M600.6,510h80h80 M760.5,510v43.9
		 M760.5,510h80 M760.5,553.9h80 M840.5,553.9V510 M840.5,553.9h80 M840.5,510h80 M1080.4,510H920.5 M1080.4,510h159.9h80
		 M1080.4,510v87.8 M1080.4,510h239.9 M1080.4,510h-80 M1080.4,510v131.6 M920.5,510v131.6 M920.5,510h80 M920.5,510v43.9
		 M280.8,334.5v87.8v43.9 M280.8,334.5V510 M360.8,510h-80 M360.8,510h80 M360.8,510v87.8 M280.8,510v-43.9 M120.9,466.1h80h80
		 M120.9,466.1h159.9 M1400.2,685.5v-87.8 M1400.2,685.5V510 M1400.2,597.8h159.9 M1400.2,597.8h80 M1400.2,597.8v-43.9
		 M1560.1,597.8h-79.9 M1560.1,597.8v-43.9 M1320.2,510h80 M1320.2,510v87.8 M1320.2,510v-87.8 M1400.2,510v43.9 M1480.2,597.8
		v-43.9 M1480.2,553.9h79.9 M1480.2,553.9h-80 M1560.1,553.9h-159.9 M440.7,685.5v-87.8 M440.7,685.5V510 M440.7,597.8h159.9
		 M440.7,597.8h80 M440.7,597.8v-43.9 M600.6,597.8h-80 M600.6,597.8v-43.9 M440.7,510v43.9 M520.7,597.8v-43.9 M520.7,553.9h80
		 M520.7,553.9h-80 M600.6,553.9H440.7 M1080.4,597.8h239.9 M120.9,597.8h239.9 M1560.1,422.2h-239.9 M840.5,641.6h239.9
		 M840.5,641.6h80 M1080.4,641.6h-80 M1000.4,641.6V510 M1000.4,641.6h-80 M920.5,641.6v-43.9 M920.5,597.8v-43.9 M-119,641.6h239.9
		 M-119,641.6h80 M-119,641.6v-43.9 M120.9,641.6h-80 M40.9,641.6V510 M40.9,641.6h-80 M-39,641.6l0-43.9 M-119,597.8h80
		 M-119,597.8v-43.9 M-39,597.8v-43.9 M-119,553.9h80 M1800,378.4h-239.9 M1800,378.4h-80 M1800,378.4v43.9 M1560.1,378.4h80
		 M1640.1,378.4V510 M1640.1,378.4h80 M1720,378.4v43.9 M1800,422.2h-80 M1800,422.2v43.9 M1720,422.2v43.9 M1800,466.1h-80"/>
</g>
<defs>
	<filter id="Adobe_OpacityMaskFilter_2_" filterUnits="userSpaceOnUse" x="-120" y="-193" width="1921" height="1406">
		<feColorMatrix  type="matrix" values="1 0 0 0 0  0 1 0 0 0  0 0 1 0 0  0 0 0 1 0"/>
	</filter>
</defs>
<mask maskUnits="userSpaceOnUse" x="-120" y="-193" width="1921" height="1406" id="mask0_3_">
	<rect fill="#C4C4C4" filter="url(#Adobe_OpacityMaskFilter_2_)" width="1680" height="880"/>
</mask>
<g mask="url(#mask0_3_)">
	
		<radialGradient id="SVGID_3_" cx="589.6282" cy="689.2282" r="1" gradientTransform="matrix(10.9997 542.9996 759.1492 -15.3783 -528931.8125 -309176.75)" gradientUnits="userSpaceOnUse">
		<stop  offset="0" style="stop-color:#232337"/>
		<stop  offset="0.6642" style="stop-color:#232337;stop-opacity:0.5"/>
		<stop  offset="1" style="stop-color:#232337;stop-opacity:0"/>
	</radialGradient>
	<path fill="none" stroke="url(#SVGID_3_)" stroke-width="2" stroke-dasharray="2,5" d="M120.9-192H-119v87.8 M120.9-192v87.8
		 M120.9-192h159.9 M120.9-192v175.5 M120.9-104.2H-119 M120.9-104.2h-80 M120.9-104.2v43.9 M-119-104.2H40.9 M-119-104.2v43.9
		 M40.9-104.2v43.9 M40.9-60.4H-119 M40.9-60.4h80 M-119-60.4h239.9 M-119-60.4v43.9 M120.9-60.4v43.9 M120.9-16.5H-119 M120.9-16.5
		h159.9 M120.9-16.5h-80 M120.9-16.5v87.8 M120.9-16.5v43.9 M-119-16.5H40.9 M-119-16.5v87.8 M1560.1,1212H1800v-87.8 M1560.1,1212
		v-87.8 M1560.1,1212h-159.9 M1560.1,1212v-175.5 M1560.1,1124.2H1800 M1560.1,1124.2h80 M1560.1,1124.2v-43.9 M1800,1124.2h-159.9
		 M1800,1124.2v-43.9 M1640.1,1124.2v-43.9 M1640.1,1080.4H1800 M1640.1,1080.4h-80 M1800,1080.4h-239.9 M1800,1080.4v-43.9
		 M1560.1,1080.4v-43.9 M1560.1,1036.5H1800 M1560.1,1036.5h-159.9 M1560.1,1036.5h80 M1560.1,1036.5v-87.8 M1560.1,1036.5v-43.9
		 M1800,1036.5h-159.9 M1800,1036.5v-87.8 M840.5,1212H600.6 M840.5,1212v-87.8 M840.5,1212h80 M840.5,1212v-43.9 M600.6,1212v-87.8
		 M600.6,1212H440.7 M600.6,1212v-175.5 M600.6,1124.2h239.9 M600.6,1124.2h80 M600.6,1124.2v-43.9 M840.5,1124.2H680.6
		 M840.5,1124.2v-43.9 M680.6,1124.2v-43.9 M680.6,1080.4h159.9 M680.6,1080.4h-80 M840.5,1080.4H600.6 M840.5,1080.4v-43.9
		 M600.6,1080.4v-43.9 M600.6,1036.5h239.9 M600.6,1036.5H440.7 M600.6,1036.5h80 M600.6,1036.5v-87.8 M600.6,1036.5v-43.9
		 M840.5,1036.5v131.6 M840.5,1036.5h80 M840.5,1036.5H680.6 M840.5,1036.5v-87.8 M840.5,1036.5h159.9 M840.5,1036.5v-43.9
		 M840.5-192h239.9 M840.5-192v87.8 M840.5-192h-80 M840.5-192v43.9 M1080.4-192v87.8 M1080.4-192h159.9 M1080.4-192v175.5
		 M1080.4-104.2H840.5 M1080.4-104.2h-80 M1080.4-104.2v43.9 M840.5-104.2h159.9 M840.5-104.2v43.9 M1000.4-104.2v43.9 M1000.4-60.4
		H840.5 M1000.4-60.4h80 M840.5-60.4h239.9 M840.5-60.4v43.9 M1080.4-60.4v43.9 M1080.4-16.5H840.5 M1080.4-16.5h159.9 M1080.4-16.5
		h-80 M1080.4-16.5v87.8 M1080.4-16.5v43.9 M840.5-16.5v-131.6 M840.5-16.5h-80 M840.5-16.5h159.9 M840.5-16.5v87.8 M840.5-16.5
		H680.6 M840.5-16.5v43.9 M280.8-192v175.5 M280.8-192h80 M280.8-192v43.9 M280.8-16.5h80 M280.8-16.5v-87.8 M280.8-16.5v43.9
		 M280.8-16.5V159 M360.8-192v43.9 M360.8-192h80 M360.8-148.1h-80 M360.8-148.1v43.9 M360.8-148.1h80 M360.8-148.1h159.9
		 M280.8-148.1v43.9 M360.8-104.2h-80 M360.8-104.2v87.8 M360.8-104.2h159.9 M360.8-104.2h80 M360.8-16.5h80 M360.8-16.5V159
		 M360.8-16.5h239.9 M360.8-16.5v131.6 M1400.2,1212v-175.5 M1400.2,1212h-80 M1400.2,1212v-43.9 M1400.2,1036.5h-80 M1400.2,1036.5
		v87.8 M1400.2,1036.5v-43.9 M1400.2,1036.5V861 M1320.2,1212v-43.9 M1320.2,1212h-80 M1320.2,1168.1h80 M1320.2,1168.1v-43.9
		 M1320.2,1168.1h-80 M1320.2,1168.1h-159.9 M1400.2,1168.1v-43.9 M1320.2,1124.2h80 M1320.2,1124.2v-87.8 M1320.2,1124.2h-159.9
		 M1320.2,1124.2h-80 M1320.2,1036.5h-80 M1320.2,1036.5V861 M1320.2,1036.5h-239.9 M1320.2,1036.5V904.9 M440.7,1212v-175.5
		 M440.7,1212h-80 M440.7,1212v-43.9 M440.7,1036.5h-80 M440.7,1036.5v87.8 M440.7,1036.5v-43.9 M440.7,1036.5V861 M360.8,1212
		v-43.9 M360.8,1212h-80 M360.8,1168.1h80 M360.8,1168.1v-43.9 M360.8,1168.1h-80 M360.8,1168.1H200.8 M440.7,1168.1v-43.9
		 M360.8,1124.2h80 M360.8,1124.2v-87.8 M360.8,1124.2H200.8 M360.8,1124.2h-80 M360.8,1036.5h-80 M360.8,1036.5V861 M360.8,1036.5
		H120.9 M360.8,1036.5V904.9 M1240.3-192v175.5 M1240.3-192h80 M1240.3-192v43.9 M1240.3-16.5h80 M1240.3-16.5v-87.8 M1240.3-16.5
		v43.9 M1240.3-16.5V159 M1320.2-192v43.9 M1320.2-192h80 M1320.2-148.1h-80 M1320.2-148.1v43.9 M1320.2-148.1h80 M1320.2-148.1
		h159.9 M1240.3-148.1v43.9 M1320.2-104.2h-80 M1320.2-104.2v87.8 M1320.2-104.2h159.9 M1320.2-104.2h80 M1320.2-16.5h80
		 M1320.2-16.5V159 M1320.2-16.5h239.9 M1320.2-16.5v131.6 M440.7-192v43.9 M440.7-192h80 M440.7-148.1h80 M520.7-192v43.9
		 M520.7-192h80 M520.7-192v131.6 M520.7-148.1v43.9 M600.6-192v131.6 M600.6-192h159.9 M600.6-60.4h-80 M600.6-60.4v43.9
		 M600.6-60.4h159.9 M520.7-60.4v-43.9 M520.7-60.4h-80 M520.7-60.4v43.9 M520.7-104.2h-80 M440.7-104.2v87.8 M440.7-104.2v43.9
		 M440.7-16.5h80 M440.7-16.5v-43.9 M520.7-16.5h80 M600.6-16.5h159.9 M600.6-16.5v131.6 M600.6-16.5h80 M600.6-16.5v43.9
		 M1240.3,1212v-43.9 M1240.3,1212h-80 M1240.3,1168.1h-80 M1160.3,1212v-43.9 M1160.3,1212h-80 M1160.3,1212v-131.6 M1160.3,1168.1
		v-43.9 M1080.4,1212v-131.6 M1080.4,1212H920.5 M1080.4,1080.4h80 M1080.4,1080.4v-43.9 M1080.4,1080.4H920.5 M1160.3,1080.4v43.9
		 M1160.3,1080.4h80 M1160.3,1080.4v-43.9 M1160.3,1124.2h80 M1240.3,1124.2v-87.8 M1240.3,1124.2v-43.9 M1240.3,1036.5h-80
		 M1240.3,1036.5v43.9 M1160.3,1036.5h-80 M1080.4,1036.5H920.5 M1080.4,1036.5V904.9 M1080.4,1036.5h-80 M1080.4,1036.5v-43.9
		 M280.8,1212v-43.9 M280.8,1212h-80 M280.8,1168.1h-80 M200.8,1212v-43.9 M200.8,1212h-80 M200.8,1212v-131.6 M200.8,1168.1v-43.9
		 M120.9,1212v-131.6 M120.9,1212H-39 M120.9,1080.4h80 M120.9,1080.4v-43.9 M120.9,1080.4H-39 M200.8,1080.4v43.9 M200.8,1080.4h80
		 M200.8,1080.4v-43.9 M200.8,1124.2h80 M280.8,1124.2v-87.8 M280.8,1124.2v-43.9 M280.8,1036.5h-80 M280.8,1036.5v43.9
		 M200.8,1036.5h-80 M120.9,1036.5H-39 M120.9,1036.5V904.9 M120.9,1036.5h-80 M120.9,1036.5v-43.9 M1400.2-192v43.9 M1400.2-192h80
		 M1400.2-148.1h80 M1480.2-192v43.9 M1480.2-192h79.9 M1480.2-192v131.6 M1480.2-148.1v43.9 M1560.1-192v131.6 M1560.1-192H1720
		 M1560.1-60.4h-79.9 M1560.1-60.4v43.9 M1560.1-60.4H1720 M1480.2-60.4v-43.9 M1480.2-60.4h-80 M1480.2-60.4v43.9 M1480.2-104.2
		h-80 M1400.2-104.2v87.8 M1400.2-104.2v43.9 M1400.2-16.5h80 M1400.2-16.5v-43.9 M1480.2-16.5h79.9 M1560.1-16.5H1720 M1560.1-16.5
		v131.6 M1560.1-16.5h80 M1560.1-16.5v43.9 M760.5-192v131.6 M760.5-192v43.9 M760.5-60.4v43.9 M840.5-148.1h-80 M760.5-148.1v131.6
		 M920.5,1212v-131.6 M920.5,1212v-43.9 M920.5,1080.4v-43.9 M840.5,1168.1h80 M920.5,1168.1v-131.6 M-39,1212v-131.6 M-39,1212h-80
		v-43.9 M-39,1212v-43.9 M-39,1080.4v-43.9 M-119,1168.1h80 M-119,1168.1v-131.6 M-39,1168.1v-131.6 M-119,1036.5h80 M-119,1036.5
		H40.9 M-119,1036.5v-43.9 M1720-192v131.6 M1720-192h80v43.9 M1720-192v43.9 M1720-60.4v43.9 M1800-148.1h-80 M1800-148.1v131.6
		 M1720-148.1v131.6 M1800-16.5h-80 M1800-16.5h-159.9 M1800-16.5v43.9 M40.9-16.5v87.8 M40.9,71.2H-119 M40.9,71.2h80 M40.9,71.2
		h-80 M40.9,71.2v43.9 M-119,71.2h80 M-119,71.2v43.9 M120.9,71.2v43.9 M-39,71.2v43.9 M-39,115.1h-80 M-39,115.1h80 M-39,115.1V159
		 M-39,115.1h159.9 M-119,115.1V159 M40.9,115.1h80 M120.9,115.1V159 M-39,159h-80 M-39,159h159.9 M-39,159v175.5 M-39,159h80
		 M-39,159v43.9 M-119,159v175.5 M120.9,159h159.9 M120.9,159V27.4 M120.9,159h-80 M120.9,159v43.9 M120.9,159h80 M120.9,159v175.5
		 M1640.1,1036.5v-87.8 M1640.1,948.8H1800 M1640.1,948.8h-80 M1640.1,948.8h80 M1640.1,948.8v-43.9 M1800,948.8h-80 M1800,948.8
		v-43.9 M1560.1,948.8v-43.9 M1720,948.8v-43.9 M1720,904.9h80 M1720,904.9h-80 M1720,904.9V861 M1720,904.9h-159.9 M1800,904.9V861
		 M1640.1,904.9h-80 M1560.1,904.9V861 M1720,861h80 M1720,861h-159.9 M1720,861V685.5 M1720,861h-80 M1720,861v-43.9 M1800,861
		V685.5 M1560.1,861h-159.9 M1560.1,861v131.6 M1560.1,861h80 M1560.1,861v-43.9 M1560.1,861h-79.9 M1560.1,861V685.5 M680.6,1036.5
		v-87.8 M680.6,948.8h159.9 M680.6,948.8h-80 M680.6,948.8h80 M680.6,948.8v-43.9 M840.5,948.8h-80 M840.5,948.8v-43.9 M600.6,948.8
		v-43.9 M760.5,948.8v-43.9 M760.5,904.9h80 M760.5,904.9h-80 M760.5,904.9V861 M760.5,904.9H600.6 M840.5,904.9V861 M840.5,904.9
		v87.8 M840.5,904.9h80 M680.6,904.9h-80 M600.6,904.9V861 M760.5,861h80 M760.5,861H600.6 M760.5,861V685.5 M760.5,861h-80
		 M760.5,861v-43.9 M840.5,861h80 M840.5,861V685.5 M600.6,861H440.7 M600.6,861v131.6 M600.6,861h80 M600.6,861v-43.9 M600.6,861
		h-80 M600.6,861V685.5 M1000.4-16.5v87.8 M1000.4,71.2H840.5 M1000.4,71.2h80 M1000.4,71.2h-80 M1000.4,71.2v43.9 M840.5,71.2h80
		 M840.5,71.2v43.9 M1080.4,71.2v43.9 M920.5,71.2v43.9 M920.5,115.1h-80 M920.5,115.1h80 M920.5,115.1V159 M920.5,115.1h159.9
		 M840.5,115.1V159 M840.5,115.1V27.4 M840.5,115.1h-80 M1000.4,115.1h80 M1080.4,115.1V159 M920.5,159h-80 M920.5,159h159.9
		 M920.5,159v175.5 M920.5,159h80 M920.5,159v43.9 M840.5,159h-80 M840.5,159v175.5 M1080.4,159h159.9 M1080.4,159V27.4 M1080.4,159
		h-80 M1080.4,159v43.9 M1080.4,159h80 M1080.4,159v175.5 M280.8,27.4H120.9 M280.8,27.4V159 M360.8,159h-80 M360.8,159h80
		 M360.8,159v-43.9 M360.8,159H200.8 M360.8,159v175.5 M360.8,159h239.9 M360.8,159v43.9 M1400.2,992.6h159.9 M1400.2,992.6V861
		 M1320.2,861h80 M1320.2,861h-80 M1320.2,861v43.9 M1320.2,861h159.9 M1320.2,861V685.5 M1320.2,861h-239.9 M1320.2,861v-43.9
		 M440.7,992.6h159.9 M440.7,992.6V861 M360.8,861h80 M360.8,861h-80 M360.8,861v43.9 M360.8,861h159.9 M360.8,861V685.5 M360.8,861
		H120.9 M360.8,861v-43.9 M1240.3,27.4h-159.9 M1240.3,27.4V159 M1320.2,159h-80 M1320.2,159h80 M1320.2,159v-43.9 M1320.2,159
		h-159.9 M1320.2,159v175.5 M1320.2,159h239.9 M1320.2,159v43.9 M600.6,115.1H360.8 M600.6,115.1h-80 M600.6,115.1V159 M360.8,115.1
		h80 M440.7,115.1V159 M440.7,115.1h80 M440.7,159h80 M520.7,115.1V159 M520.7,159h80 M600.6,159h159.9 M600.6,159V71.2 M600.6,159
		v43.9 M600.6,159v175.5 M1080.4,904.9h239.9 M1080.4,904.9h80 M1080.4,904.9V861 M1320.2,904.9h-80 M1240.3,904.9V861
		 M1240.3,904.9h-80 M1240.3,861h-80 M1160.3,904.9V861 M1160.3,861h-80 M1080.4,861H920.5 M1080.4,861v87.8 M1080.4,861v-43.9
		 M1080.4,861V685.5 M120.9,904.9h239.9 M120.9,904.9h80 M120.9,904.9V861 M360.8,904.9h-80 M280.8,904.9V861 M280.8,904.9h-80
		 M280.8,861h-80 M200.8,904.9V861 M200.8,861h-80 M120.9,861H-39 M120.9,861v87.8 M120.9,861v-43.9 M120.9,861V685.5 M1560.1,115.1
		h-239.9 M1560.1,115.1h-79.9 M1560.1,115.1V159 M1320.2,115.1h80 M1400.2,115.1V159 M1400.2,115.1h80 M1400.2,159h80 M1480.2,115.1
		V159 M1480.2,159h79.9 M1560.1,159H1720 M1560.1,159V71.2 M1560.1,159v43.9 M1560.1,159v175.5 M680.6-16.5v43.9 M680.6,27.4h-80
		 M680.6,27.4h159.9 M600.6,27.4h159.9 M600.6,27.4v43.9 M840.5,27.4h-80 M760.5,27.4v43.9 M760.5,27.4v87.8 M760.5,71.2H600.6
		 M760.5,71.2V159 M760.5,115.1V159 M1000.4,1036.5v-43.9 M1000.4,992.6h80 M1000.4,992.6H840.5 M1080.4,992.6H920.5 M1080.4,992.6
		v-43.9 M840.5,992.6h80 M920.5,992.6v-43.9 M920.5,992.6v-87.8 M920.5,948.8h159.9 M920.5,948.8V861 M920.5,904.9V861 M920.5,861
		V685.5 M40.9,1036.5v-43.9 M40.9,992.6h80 M40.9,992.6H-119 M120.9,992.6H-39 M120.9,992.6v-43.9 M-119,992.6h80 M-119,992.6v-87.8
		 M-39,992.6v-43.9 M-39,992.6v-87.8 M-39,948.8h159.9 M-39,948.8V861 M-119,904.9h80 M-119,904.9V861 M-39,904.9V861 M-39,861h-80
		 M-39,861V685.5 M-119,861V685.5 M1640.1-16.5v43.9 M1640.1,27.4h-80 M1640.1,27.4H1800 M1560.1,27.4H1720 M1560.1,27.4v43.9
		 M1800,27.4h-80 M1800,27.4v87.8 M1720,27.4v43.9 M1720,27.4v87.8 M1720,71.2h-159.9 M1720,71.2V159 M1800,115.1h-80 M1800,115.1
		V159 M1720,115.1V159 M1720,159h80 M1720,159v175.5 M1800,159v175.5 M-39,334.5h-80 M-39,334.5h159.9 M-39,334.5v-43.9 M-39,334.5
		v87.8 M-39,334.5V510 M-119,334.5v87.8 M40.9,159v43.9 M40.9,202.9h-80 M40.9,202.9h80 M40.9,202.9v43.9 M-39,202.9v43.9
		 M120.9,202.9v43.9 M40.9,246.8h-80 M40.9,246.8h80 M40.9,246.8v43.9 M-39,246.8v43.9 M120.9,246.8v43.9 M40.9,290.6h-80
		 M40.9,290.6h80 M-39,290.6h159.9 M120.9,290.6v43.9 M120.9,334.5h80 M120.9,334.5V510 M120.9,334.5h159.9 M120.9,334.5v87.8v43.9
		 M1720,685.5h80 M1720,685.5h-159.9 M1720,685.5v43.9 M1720,685.5v-87.8 M1720,685.5V510 M1800,685.5v-87.8 M1640.1,861v-43.9
		 M1640.1,817.1h80 M1640.1,817.1h-80 M1640.1,817.1v-43.9 M1720,817.1v-43.9 M1560.1,817.1v-43.9 M1640.1,773.2h80 M1640.1,773.2
		h-80 M1640.1,773.2v-43.9 M1720,773.2v-43.9 M1560.1,773.2v-43.9 M1640.1,729.4h80 M1640.1,729.4h-80 M1720,729.4h-159.9
		 M1560.1,729.4v-43.9 M1560.1,685.5h-79.9 M1560.1,685.5V510 M1560.1,685.5h-159.9 M1560.1,685.5v-87.8 M760.5,685.5h80
		 M760.5,685.5H600.6 M760.5,685.5v43.9v43.9 M760.5,685.5v-87.8 M760.5,685.5V510 M840.5,685.5h80 M840.5,685.5v-87.8 M840.5,685.5
		h239.9 M840.5,685.5v-43.9 M680.6,861v-43.9 M680.6,817.1h80 M680.6,817.1h-80 M680.6,817.1v-43.9 M760.5,817.1v-43.9 M600.6,817.1
		v-43.9 M680.6,773.2h80 M680.6,773.2h-80 M600.6,773.2v-43.9v-43.9 M600.6,685.5h-80 M600.6,685.5V510 M600.6,685.5H440.7
		 M600.6,685.5v-87.8 M920.5,334.5h-80 M920.5,334.5h159.9 M920.5,334.5v-43.9 M840.5,334.5H600.6 M1000.4,159v43.9 M1000.4,202.9
		h-80 M1000.4,202.9h80 M1000.4,202.9v43.9 M920.5,202.9v43.9 M1080.4,202.9v43.9 M1000.4,246.8h-80 M1000.4,246.8h80 M1000.4,246.8
		v43.9 M920.5,246.8v43.9 M1080.4,246.8v43.9 M1000.4,290.6h-80 M1000.4,290.6h80 M920.5,290.6h159.9 M1080.4,290.6v43.9
		 M1080.4,334.5h80 M1080.4,334.5h159.9h80 M200.8,159v175.5 M200.8,334.5h159.9 M360.8,334.5h80 M360.8,334.5v-87.8 M360.8,334.5
		h-80 M360.8,334.5V510 M360.8,334.5h239.9 M360.8,334.5v87.8V510 M1480.2,861V685.5 M1480.2,685.5h-159.9 M1320.2,685.5h-80
		 M1320.2,685.5v87.8 M1320.2,685.5h80 M1320.2,685.5V510 M1320.2,685.5h-239.9 M1320.2,685.5v-87.8 M520.7,861V685.5 M520.7,685.5
		H360.8 M360.8,685.5h-80 M360.8,685.5v87.8 M360.8,685.5h80 M360.8,685.5V510 M360.8,685.5H120.9 M360.8,685.5v-87.8 M1160.3,159
		v175.5 M1160.3,334.5h159.9 M1320.2,334.5h80v-87.8 M1320.2,334.5v-87.8 M1320.2,334.5V510 M1320.2,334.5v87.8 M600.6,202.9H360.8
		 M600.6,202.9v43.9 M360.8,202.9v43.9 M600.6,246.8H360.8 M600.6,246.8h-80 M600.6,246.8v43.9 M360.8,246.8h80 M440.7,246.8v87.8
		 M440.7,246.8h80 M440.7,334.5h80 M520.7,246.8v87.8 M520.7,246.8v43.9 M520.7,334.5h80 M520.7,334.5v-43.9 M600.6,290.6h-80
		 M600.6,290.6v43.9 M1080.4,817.1h239.9 M1080.4,817.1v-43.9 M1320.2,817.1v-43.9 M1080.4,773.2h239.9 M1080.4,773.2h80
		 M1080.4,773.2v-43.9 M1320.2,773.2h-80 M1240.3,773.2v-87.8 M1240.3,773.2h-80 M1240.3,685.5h-80 M1160.3,773.2v-87.8
		 M1160.3,773.2v-43.9 M1160.3,685.5h-80 M1160.3,685.5v43.9 M1080.4,729.4h80 M1080.4,729.4v-43.9 M1080.4,685.5H920.5
		 M1080.4,685.5v-87.8 M1080.4,685.5v-43.9 M120.9,817.1h239.9 M120.9,817.1v-43.9 M360.8,817.1v-43.9 M120.9,773.2h239.9
		 M120.9,773.2h80 M120.9,773.2v-43.9 M360.8,773.2h-80 M280.8,773.2v-87.8 M280.8,773.2h-80 M280.8,685.5h-80 M200.8,773.2v-87.8
		 M200.8,773.2v-43.9 M200.8,685.5h-80 M200.8,685.5v43.9 M120.9,729.4h80 M120.9,729.4v-43.9 M120.9,685.5H-39 M120.9,685.5v-87.8
		 M120.9,685.5H-119 M120.9,685.5v-43.9 M1560.1,202.9h-239.9 M1560.1,202.9v43.9 M1320.2,202.9v43.9 M1560.1,246.8h-239.9
		 M1560.1,246.8h-79.9 M1560.1,246.8v43.9 M1320.2,246.8h80 M1400.2,246.8h80 M1480.2,246.8v87.8 M1480.2,246.8v43.9 M1480.2,334.5
		h79.9 M1480.2,334.5v-43.9 M1560.1,290.6h-79.9 M1560.1,290.6v43.9 M1560.1,334.5H1720 M1560.1,334.5v87.8 M1560.1,334.5H1800
		 M1560.1,334.5v43.9 M-39,685.5h-80 M-119,685.5v-43.9 M1720,334.5h80 M1800,334.5v43.9 M-39,422.2h-80 M-39,422.2v43.9
		 M-119,422.2v43.9 M120.9,510H-39 M120.9,510h159.9 M120.9,510v-43.9 M120.9,510v87.8 M120.9,510h239.9 M120.9,510h-80 M120.9,510
		v131.6 M-39,510v-43.9 M-39,510h-80 M-39,510v131.6 M-39,510h80 M-39,510l0,43.9 M-39,466.1h-80 M-119,466.1V510 M-119,510v43.9
		 M1720,597.8h80 M1720,597.8v-43.9 M1800,597.8v-43.9 M1560.1,510H1720 M1560.1,510h-159.9 M1560.1,510v43.9 M1560.1,510v-87.8
		 M1560.1,510h-239.9 M1560.1,510h80 M1560.1,510V378.4 M1720,510v43.9 M1720,510h80 M1720,510V378.4 M1720,510h-80 M1720,510v-43.9
		 M1720,553.9h80 M1800,553.9V510 M1800,510v-43.9 M760.5,597.8h80 M760.5,597.8v-43.9 M840.5,597.8v-43.9 M840.5,597.8v43.9
		 M840.5,597.8h80 M600.6,510h159.9 M600.6,510H440.7 M600.6,510v43.9 M600.6,510H360.8 M600.6,510h80h80 M760.5,510v43.9
		 M760.5,510h80 M760.5,553.9h80 M840.5,553.9V510 M840.5,553.9h80 M840.5,510h80 M1080.4,510H920.5 M1080.4,510h159.9h80
		 M1080.4,510v87.8 M1080.4,510h239.9 M1080.4,510h-80 M1080.4,510v131.6 M920.5,510v131.6 M920.5,510h80 M920.5,510v43.9
		 M280.8,334.5v87.8v43.9 M280.8,334.5V510 M360.8,510h-80 M360.8,510h80 M360.8,510v87.8 M280.8,510v-43.9 M120.9,466.1h80h80
		 M120.9,466.1h159.9 M1400.2,685.5v-87.8 M1400.2,685.5V510 M1400.2,597.8h159.9 M1400.2,597.8h80 M1400.2,597.8v-43.9
		 M1560.1,597.8h-79.9 M1560.1,597.8v-43.9 M1320.2,510h80 M1320.2,510v87.8 M1320.2,510v-87.8 M1400.2,510v43.9 M1480.2,597.8
		v-43.9 M1480.2,553.9h79.9 M1480.2,553.9h-80 M1560.1,553.9h-159.9 M440.7,685.5v-87.8 M440.7,685.5V510 M440.7,597.8h159.9
		 M440.7,597.8h80 M440.7,597.8v-43.9 M600.6,597.8h-80 M600.6,597.8v-43.9 M440.7,510v43.9 M520.7,597.8v-43.9 M520.7,553.9h80
		 M520.7,553.9h-80 M600.6,553.9H440.7 M1080.4,597.8h239.9 M120.9,597.8h239.9 M1560.1,422.2h-239.9 M840.5,641.6h239.9
		 M840.5,641.6h80 M1080.4,641.6h-80 M1000.4,641.6V510 M1000.4,641.6h-80 M920.5,641.6v-43.9 M920.5,597.8v-43.9 M-119,641.6h239.9
		 M-119,641.6h80 M-119,641.6v-43.9 M120.9,641.6h-80 M40.9,641.6V510 M40.9,641.6h-80 M-39,641.6l0-43.9 M-119,597.8h80
		 M-119,597.8v-43.9 M-39,597.8v-43.9 M-119,553.9h80 M1800,378.4h-239.9 M1800,378.4h-80 M1800,378.4v43.9 M1560.1,378.4h80
		 M1640.1,378.4V510 M1640.1,378.4h80 M1720,378.4v43.9 M1800,422.2h-80 M1800,422.2v43.9 M1720,422.2v43.9 M1800,466.1h-80"/>
</g>
</svg>
